<?xml version="1.0" encoding="UTF-8" standalone="no"?>
<!-- Created with Inkscape (http://www.inkscape.org/) -->

<svg
   width="63mm"
   height="41mm"
   viewBox="0 0 63.00039 41.000085"
   version="1.1"
   id="svg1671"
   inkscape:version="1.1.1 (3bf5ae0d25, 2021-09-20, custom)"
   sodipodi:docname="LogoMarcaSlogan.svg"
   xmlns:inkscape="http://www.inkscape.org/namespaces/inkscape"
   xmlns:sodipodi="http://sodipodi.sourceforge.net/DTD/sodipodi-0.dtd"
   xmlns="http://www.w3.org/2000/svg"
   xmlns:svg="http://www.w3.org/2000/svg"
   xmlns:rdf="http://www.w3.org/1999/02/22-rdf-syntax-ns#"
   xmlns:cc="http://creativecommons.org/ns#"
   xmlns:dc="http://purl.org/dc/elements/1.1/">
  <defs
     id="defs1665" />
  <sodipodi:namedview
     id="base"
     pagecolor="#ffffff"
     bordercolor="#666666"
     borderopacity="1.0"
     inkscape:pageopacity="0.0"
     inkscape:pageshadow="2"
     inkscape:zoom="2.8"
     inkscape:cx="211.60714"
     inkscape:cy="132.32143"
     inkscape:document-units="mm"
     inkscape:current-layer="layer1"
     showgrid="false"
     inkscape:window-width="1366"
     inkscape:window-height="703"
     inkscape:window-x="0"
     inkscape:window-y="0"
     inkscape:window-maximized="1"
     units="mm"
     inkscape:pagecheckerboard="0"
     width="63px"
     height="40mm" />
  <metadata
     id="metadata1668">
    <rdf:RDF>
      <cc:Work
         rdf:about="">
        <dc:format>image/svg+xml</dc:format>
        <dc:type
           rdf:resource="http://purl.org/dc/dcmitype/StillImage" />
      </cc:Work>
    </rdf:RDF>
  </metadata>
  <g
     inkscape:label="Capa 1"
     inkscape:groupmode="layer"
     id="layer1"
     transform="translate(0,-191.16652)">
    <g
       id="g1247"
       transform="translate(-3.258384,-1.979401)">
      <path
         inkscape:connector-curvature="0"
         id="path6391"
         style="fill:#ffffff;fill-opacity:1;fill-rule:nonzero;stroke:none;stroke-width:0.278648"
         d="m 65.516797,229.07186 c -1.22486,-0.69118 -2.727052,-0.92248 -4.098044,-1.14566 -20.506277,-3.33893 -37.00153,-4.03637 -57.2370149,0.0655 -0.2035456,0.0411 -0.1844813,0.36095 0.029688,0.32889 18.1319019,-2.02045 38.3233459,-2.58161 56.5368289,0.20892 1.564107,0.23962 3.100197,0.64966 4.661177,0.88394 0.207955,0.0311 0.282054,-0.24305 0.107325,-0.34161"
         inkscape:export-xdpi="96"
         inkscape:export-ydpi="96" />
      <path
         inkscape:connector-curvature="0"
         id="path6393"
         style="fill:#ffffff;fill-opacity:1;fill-rule:nonzero;stroke:none;stroke-width:0.278648"
         d="m 39.168628,208.62934 c -0.05605,-0.0114 -0.111992,-0.0227 -0.167788,-0.035 -0.06925,-0.005 -0.138153,-0.0104 -0.206532,-0.0181 0.0066,-0.008 0.01125,-0.016 0.01512,-0.0239 -0.124843,-0.0268 -0.247643,-0.052 -0.367022,-0.0678 -0.539094,-0.0719 -1.059956,-0.15479 -1.570198,-0.34385 -0.245474,-0.0377 -0.496569,-0.0651 -0.732279,-0.0475 -0.378294,0.028 -0.770857,0.21466 -1.128288,0.33548 -0.253615,0.0857 -0.498735,0.18219 -0.740241,0.28932 0.765807,-0.99229 1.12481,-2.26268 1.595477,-3.40904 0.03401,-0.0823 -0.03702,-0.15414 -0.103147,-0.1455 -0.04742,-0.0493 -0.132447,-0.0573 -0.171826,0.0252 -0.277378,0.58563 -0.593101,1.16197 -0.906054,1.72936 -1.19375,2.16594 -2.127168,2.7153 -4.408091,3.73396 -0.724712,0.32361 -4.208292,1.60206 -4.534109,2.12681 -0.259792,0.41828 -0.445233,0.90524 -0.658257,1.36079 -0.03606,-0.18376 -0.09165,-0.36612 -0.125835,-0.55053 -0.42812,-2.30087 1.019715,-4.57411 2.203665,-6.50326 0.358423,0.11473 0.712837,0.24426 1.075803,0.34708 0.352518,0.0999 0.711657,0.27282 1.082751,0.28613 0.363236,0.0132 0.685745,-0.1509 1.011485,-0.28678 0.407659,-0.17002 0.838836,-0.26361 1.249991,-0.41881 0.02566,-0.007 0.05115,-0.0134 0.07662,-0.0192 0.136425,-0.032 0.08207,-0.24694 -0.05164,-0.2351 -0.859769,0.0765 -1.66172,0.55355 -2.550949,0.46408 -0.321643,-0.0325 -0.622181,-0.16284 -0.936086,-0.23122 -0.08878,-0.0198 -0.178258,-0.0344 -0.267837,-0.049 -0.169338,-0.0465 -0.339959,-0.0834 -0.512071,-0.10197 -0.0031,-0.001 -0.005,-0.001 -0.0063,-0.003 0.09092,-0.11398 0.194939,-0.2216 0.319108,-0.32092 2.696149,-2.15253 6.163517,-2.25383 6.76861,-2.75359 0.37817,-0.31238 0.709367,-0.69095 1.064087,-1.03014 0.390931,-0.37384 0.900556,-0.67253 1.190064,-1.14165 0.02617,-0.043 0.02407,-0.0856 0.0067,-0.11818 0.0082,-0.0109 0.01631,-0.0206 0.02295,-0.0318 0.06412,-0.0938 -0.06587,-0.1919 -0.139974,-0.10646 -0.29323,0.33934 -0.634656,0.5647 -0.970657,0.85264 -0.341108,0.2924 -0.665341,0.60179 -1.01217,0.88956 -0.346033,0.28689 -2.827045,1.33049 -1.740027,-0.31152 0.137498,-0.2078 0.21067,-0.45124 0.349205,-0.65567 0.04748,-0.07 -0.004,-0.18728 -0.08496,-0.18572 -0.04472,-0.0421 -0.111842,-0.0538 -0.160115,0.009 -0.589891,0.76642 -1.014119,1.58388 -1.052659,0.42219 -0.01953,-0.58988 -0.01291,-1.12168 0.187673,-1.6825 0.16374,-0.45774 0.318133,-0.9224 0.504999,-1.37114 0.208373,-0.50067 0.464703,-0.95112 0.63674,-1.47057 0.03194,-0.096 -0.07679,-0.20266 -0.166234,-0.12826 -0.369686,0.30712 -0.59809,0.79685 -0.840276,1.20398 -0.13373,0.22481 -0.23326,0.46571 -0.335719,0.70568 -0.112079,0.26262 -0.265866,0.49167 -0.393594,0.74438 -0.111421,0.22043 -0.111373,0.36885 -0.108539,0.60873 0.005,0.37322 -0.0744,0.75085 -0.136782,1.11735 -0.530237,3.11321 -1.253045,2.03196 -3.922503,4.03624 -1.681058,1.2623 -2.811292,5.58446 -2.821565,5.43565 -0.12685,-1.85293 0.419339,-3.7124 1.271911,-5.3456 0.266918,-0.51122 0.548018,-1.02394 0.850074,-1.51527 0.276282,-0.4496 0.653549,-0.79588 1.021472,-1.16868 0.367903,-0.37292 0.699106,-0.73072 0.97959,-1.17401 0.04506,-0.0712 0.09178,-0.14045 0.13656,-0.20939 0.169111,-0.33561 0.24755,-0.61197 0.06959,-0.66197 -0.109469,-0.10615 -0.186476,-0.0723 -0.231114,0.10157 -0.04242,0.0716 -0.083,0.14413 -0.121959,0.21769 -0.06192,0.10807 -0.116418,0.20087 -0.195077,0.29855 -0.139896,0.17376 -0.304268,0.33136 -0.500013,0.43798 -0.0564,0.0572 -0.114363,0.11352 -0.175187,0.16873 -0.06081,0.0553 -0.123355,0.10891 -0.186556,0.16186 0.01777,-0.14361 0.04066,-0.2862 0.06099,-0.43382 0.07756,-0.56141 0.144131,-1.10683 0.14887,-1.67387 0.125925,-0.64084 0.19812,-1.27873 0.06485,-1.93346 -0.144309,-0.70909 -0.415405,-1.4909 -0.854945,-2.07165 -0.02779,-0.0368 -0.08381,-0.0303 -0.112178,-0.001 -0.04704,0.0128 -0.08332,0.0543 -0.0639,0.11563 0.166172,0.52297 0.238621,1.0762 0.385618,1.60517 0.07891,0.28415 0.183157,0.52637 0.174312,0.82794 -0.0086,0.28768 -0.03369,0.56831 -0.02966,0.85741 0.0056,0.3859 -0.01624,0.77306 -0.04093,1.15937 -0.09637,0.543 -0.210188,1.08324 -0.281667,1.63029 -0.267362,-0.12946 -0.534897,-0.2482 -0.759764,-0.46603 -0.322836,-0.31247 -0.751815,-0.45431 -1.084882,-0.75709 -0.329382,-0.2995 -0.655608,-0.59042 -0.957022,-0.91925 -0.266421,-0.29089 -0.534893,-0.68167 -0.87351,-0.90122 -0.02983,-0.0292 -0.05932,-0.059 -0.08997,-0.0877 -0.09699,-0.0906 -0.253705,0.0356 -0.180004,0.14891 0.04034,0.0622 0.08309,0.12239 0.1251,0.18317 0.06683,0.11743 0.151195,0.23003 0.243383,0.33745 0.166794,0.22086 0.340805,0.43636 0.518527,0.65005 0.294868,0.3545 0.51707,0.77791 0.849189,1.09974 0.319355,0.30929 0.716436,0.55334 1.086563,0.79641 0.271545,0.17833 0.580219,0.31499 0.85431,0.49405 -0.09912,0.0855 -0.195896,0.17344 -0.287682,0.26649 -0.381811,0.38737 -0.608351,0.90064 -0.880223,1.36466 -0.320745,0.54717 -0.641061,1.09244 -0.935756,1.65419 -0.736954,-0.53373 -1.018135,-1.05263 -1.540409,-1.76758 -0.303304,-0.41537 -0.64184,-0.81002 -0.913414,-1.24722 -0.0467,-0.0751 -0.147541,-0.0609 -0.195415,-0.005 -0.04407,0.002 -0.08506,0.0355 -0.06785,0.0898 0.380804,1.20424 0.874235,2.35886 1.91189,3.12999 0.12922,0.096 0.383307,0.20689 0.565543,0.34259 -0.932692,2.55591 -0.898719,3.1 -1.069015,5.65941 -0.06358,-0.0693 -0.124314,-0.13698 -0.175263,-0.20331 -0.331922,-0.43286 -0.66051,-0.86006 -0.963481,-1.3137 -0.273629,-0.40962 -0.610112,-0.74255 -0.995724,-1.04783 -0.342182,-0.27095 -0.740261,-0.47947 -1.081406,-0.75004 -0.0056,-0.0229 -0.01827,-0.0453 -0.04094,-0.064 -0.198202,-0.16308 -0.415636,-0.30133 -0.635929,-0.43612 0.06525,-0.22635 0.114046,-0.46609 0.169115,-0.68523 0.06382,-0.25464 0.107711,-0.50855 0.07795,-0.7724 -0.03677,-0.32796 -0.155934,-0.66031 -0.241171,-0.97866 -0.08892,-0.33205 -0.159868,-0.66725 -0.304268,-0.98051 -0.01664,-0.0363 -0.05032,-0.0453 -0.08141,-0.0375 -0.05687,-0.0157 -0.127015,0.01 -0.138791,0.0844 -0.03709,0.23688 0.04615,0.44242 0.09109,0.67305 0.05552,0.28456 0.102038,0.58433 0.134581,0.87226 0.05498,0.48702 0.04171,1.09056 -0.05569,1.61115 -0.124568,-0.0777 -0.247546,-0.15773 -0.365632,-0.24408 -0.533475,-0.38995 -1.047999,-0.83247 -1.480534,-1.33404 -0.155513,-0.18035 -0.303617,-0.36789 -0.44857,-0.55813 0.07424,-0.67355 0.225363,-1.33904 0.449122,-1.97708 0.2358,-0.67206 0.378505,-1.34742 0.662147,-2.00184 0.21445,-0.49485 0.292418,-1.03253 0.488393,-1.53092 0.204895,-0.33705 0.415554,-0.67036 0.62999,-1.00258 0.06722,-0.0865 0.133557,-0.17377 0.195816,-0.26416 0.158442,-0.23 0.289317,-0.46834 0.489464,-0.66687 0.114137,-0.1132 -0.04983,-0.26096 -0.172178,-0.19675 -0.248267,0.1302 -0.371478,0.35867 -0.519737,0.5867 -0.148815,0.22892 -0.319896,0.44253 -0.477313,0.66557 -0.03907,-0.24984 -0.06358,-0.49967 -0.107197,-0.75055 -0.0729,-0.42034 -0.214931,-0.8221 -0.158919,-1.25525 0.09124,-0.70583 0.588924,-1.30597 0.551974,-2.03455 -0.0056,-0.10854 -0.137453,-0.13009 -0.181842,-0.0328 -0.30538,0.6687 -0.727936,1.49679 -0.726521,2.24575 5.46e-4,0.64976 0.188696,1.44987 0.474703,2.04981 -0.0038,0.007 -0.0084,0.0124 -0.0122,0.0188 -0.08137,0.13245 -0.147462,0.27053 -0.204758,0.41202 -0.690661,1.08043 -1.283533,2.26435 -1.520972,3.52936 -0.101329,0.53965 -0.214368,1.09664 -0.265139,1.6484 -0.480333,-0.69589 -0.909954,-1.43198 -1.324391,-2.16079 0.184446,-0.31336 0.317465,-0.64726 0.459864,-0.9884 0.470211,-1.12608 0.67157,-1.50442 0.668308,-2.73753 -5.87e-4,-0.32524 -0.01255,-0.62371 -0.08593,-0.91746 -0.05632,-0.17701 -0.130243,-0.34363 -0.209934,-0.52193 -0.01941,0.005 -0.03792,0.0136 -0.05301,0.0269 -0.01962,0.003 -0.03857,0.0123 -0.05444,0.0251 0.05853,0.46726 0.0083,0.96415 -0.09045,1.45263 -0.172038,1.31053 -0.565849,1.89696 -0.94484,3.07036 -0.05868,0.0674 -0.117055,0.1342 -0.175747,0.19874 -0.455922,-1.10928 -0.50006,-0.76742 -0.194629,0.11793 -0.120992,-0.0387 -0.252209,-0.059 -0.370995,-0.0881 -0.434106,-0.10671 -0.887501,-0.27662 -1.263563,-0.52066 -0.217366,-0.14123 -0.412235,-0.31504 -0.600141,-0.4994 -0.05853,-0.04 -0.115088,-0.0875 -0.170453,-0.15075 -0.0512,-0.0584 -0.09872,-0.11477 -0.145317,-0.16951 -0.155237,-0.1594 -0.311528,-0.31777 -0.47813,-0.46216 -0.01276,-0.009 -0.0244,-0.0187 -0.03771,-0.0269 -0.141382,-0.0938 -0.273048,-0.18732 -0.398246,-0.29274 -0.02434,-0.0151 -0.04824,-0.0295 -0.07321,-0.0434 -0.06153,-0.0337 -0.176771,0.004 -0.149201,0.0932 0.08512,0.27702 0.307582,0.46172 0.52849,0.64005 0.457427,0.56636 0.992542,1.09309 1.535042,1.55548 0.240753,0.20536 0.499802,0.32275 0.806988,0.39899 0.319021,0.0792 0.714459,0.19693 1.043268,0.17914 0.0056,-2.3e-4 0.01,-0.003 0.01486,-0.003 0.287279,0.64671 0.648084,1.26017 0.983069,1.89698 0.443751,0.84342 1.040417,1.57275 1.732899,2.21117 -0.0038,-0.002 -0.008,-0.003 -0.01196,-0.004 -0.881936,-0.27447 -1.771495,-0.54293 -2.672813,-0.74673 -0.452819,-0.10251 -0.875651,-0.17982 -1.300458,-0.17639 -0.22336,-0.29887 -0.50505,-0.56519 -0.749503,-0.83725 -0.289017,-0.32123 -0.565764,-0.65342 -0.857622,-0.97201 -0.303956,-0.33148 -0.621789,-0.65076 -0.953919,-0.9539 -0.321894,-0.29386 -0.681984,-0.67118 -1.097147,-0.82069 -0.06555,-0.0233 -0.1437509,0.0453 -0.094844,0.11132 0.031877,0.0429 0.066657,0.0841 0.1028397,0.12405 5.87e-4,0.003 5.87e-4,0.003 0.0031,0.005 0.4899523,0.66138 1.1261283,1.22531 1.6794893,1.83447 0.260427,0.28672 0.50703,0.57992 0.736241,0.89218 0.169883,0.23135 0.322108,0.48259 0.496262,0.71372 -0.07725,0.0203 -0.154897,0.0432 -0.233553,0.0708 -0.803454,0.28253 -1.668342,0.52794 -2.4038053,0.96334 -0.05774,0.0342 -0.02336,0.10732 0.02955,0.12146 0.01308,0.0332 0.0433,0.0573 0.09108,0.0496 1.1826543,-0.1901 2.3480133,-0.78623 3.5688633,-0.54522 0.253919,0.0502 0.506295,0.12134 0.757086,0.20553 -0.736724,0.41705 -1.35931,1.06957 -1.912836,1.68006 -0.33103,0.36513 -0.623532,0.68699 -0.855422,1.12495 -0.114525,0.21614 -0.241483,0.43139 -0.32876,0.66053 -0.05389,0.14161 -0.08293,0.28942 -0.124879,0.43265 -0.04637,0.0861 -0.08481,0.17526 -0.109924,0.26895 -0.008,0.0143 -0.01486,0.0278 -0.02373,0.0415 -0.05623,0.0868 0.05838,0.15821 0.129938,0.10789 0.0096,-0.004 0.01886,-0.0106 0.02791,-0.0198 0.375729,-0.38228 0.585294,-0.91378 0.81697,-1.38868 0.41916,-0.85881 1.928766,-1.73249 2.796764,-2.1361 0.188702,-0.0878 0.446028,-0.1956 0.615144,-0.36064 1.215467,0.54493 3.668793,1.39693 4.523832,2.0362 0.346661,0.25922 0.65763,0.56729 0.941912,0.8956 -0.09528,-0.0149 -0.19052,-0.0303 -0.285705,-0.0496 -0.439324,-0.0885 -0.904891,-0.19585 -1.35479,-0.14577 -0.805659,0.0896 -1.541434,0.46542 -2.228466,0.87496 -0.122833,0.0732 -0.01441,0.24593 0.110506,0.1879 0.02505,-0.0119 0.05049,-0.0234 0.07568,-0.0358 0.327107,0.0475 0.649276,-0.12086 0.953784,-0.23027 0.589955,-0.21183 1.087347,-0.12199 1.688502,-0.0205 0.466566,0.0788 1.068221,0.0665 1.496724,0.2718 0.0439,0.0208 0.08475,0.0461 0.124308,0.0729 0.06635,0.0748 0.131688,0.15744 0.197564,0.25073 0.416185,0.58971 0.711271,1.25187 1.051143,1.88567 0.339342,0.63251 0.750066,1.21238 0.936099,1.91618 0.181821,0.68797 0.177634,1.39809 0.171952,2.10455 -0.0063,0.81798 -0.02075,1.63592 -0.03254,2.45384 -0.01145,0.79184 -0.005,1.5836 -0.05513,2.37422 -0.04681,0.73484 -0.01107,1.47109 -0.05148,2.20386 0.240753,-0.0343 0.481505,-0.0692 0.722509,-0.10259 0.0031,-0.0219 0.0038,-0.0444 0.0079,-0.0665 0.0013,0.0212 0.0019,0.0435 0.0033,0.0651 0.351491,-0.0485 0.703451,-0.0934 1.056915,-0.12625 0.38223,-0.0356 0.833466,-0.0845 1.280302,-0.0813 -0.01376,-0.0845 -0.02367,-0.16954 -0.02943,-0.25498 0.01467,0.0861 0.03342,0.17108 0.05545,0.25514 0.119679,10e-4 0.238861,0.007 0.356216,0.0179 -0.03994,-0.26374 -0.04857,-0.53977 -0.08125,-0.79969 -0.05537,-0.44019 -0.08752,-0.88271 -0.144164,-1.32272 -0.104503,-0.81136 -0.220609,-1.62478 -0.439405,-2.4138 -0.227397,-0.81976 -0.448306,-1.63928 -0.652892,-2.46518 -0.09494,-0.38338 -0.207525,-0.76363 -0.285932,-1.15093 -0.111629,-0.55144 -0.02409,-1.00863 0.132146,-1.53886 0.12322,-0.41816 0.283488,-0.82682 0.440338,-1.23333 0.150806,-0.39033 0.231288,-0.84719 0.617675,-1.0685 0.665224,-0.38095 1.351222,-0.73365 2.019879,-1.11308 0.728327,-0.4135 1.410548,-0.89998 2.155063,-1.28708 0.547466,-0.28464 1.643351,-0.81857 2.264248,-0.85737 0.340177,0.20905 0.705057,0.38678 1.045909,0.57989 0.751211,0.42549 2.29812,1.32445 3.108749,1.41906 0.541965,0.0632 1.073107,-0.0341 1.603281,-0.13832 0.167946,-0.0331 0.119899,-0.27843 -0.04754,-0.25947 -0.03468,0.004 -0.06872,0.007 -0.10306,0.0111 -0.0067,-0.0135 -0.0156,-0.0251 -0.02869,-0.0349 -0.144493,-0.0995 -0.241723,-0.10623 -0.415391,-0.13264 -0.28073,-0.0426 -0.555895,-0.12021 -0.831763,-0.18699 -1.166604,-0.28265 -1.967307,-0.57588 -3.032865,-1.13181 -0.422854,-0.22069 -0.917042,-0.46732 -1.250988,-0.82606 0.876008,-0.44803 1.731995,-1.01787 2.689831,-1.27557 0.501783,-0.13513 1.11241,0.0103 1.621021,0.0915 0.558617,0.0893 1.054173,0.25597 1.627901,0.25379 0.152641,-0.001 0.209566,-0.19145 0.12066,-0.26677 z m -5.988016,-5.02795 c -1.260737,0.0538 0.605741,-0.0251 0,0 z m -0.679389,-4.38752 v 0 c 0.0495,-0.0865 0.09773,-0.17325 0.143119,-0.2609 -0.0295,0.0825 -0.05951,0.16431 -0.09106,0.24456 -0.0236,0.0598 -0.04835,0.11902 -0.07404,0.17795 0.0064,-0.0495 0.01322,-0.10275 0.02206,-0.16161 z m -0.184738,0.31681 v 0 c -0.0544,0.16512 -0.132289,0.27345 -0.246446,0.44194 -4.69e-4,0.001 -0.0015,0.002 -0.002,0.003 0.07723,-0.15013 0.161859,-0.29758 0.248028,-0.44439 z m -6.338227,5.66497 v 0 c -0.07725,0.13378 -0.151288,0.26958 -0.222756,0.40598 0.0662,-0.14022 0.139187,-0.27908 0.222756,-0.40598 z m -3.135414,0.37192 c 0.298658,0.39638 0.296378,0.52742 0,0 z m -7.746009,-2.52345 c 0.948158,-2.27317 0.02601,-0.0217 0,0 z m 8.835801,13.60555 v 0 c -0.01513,-0.051 -0.03276,-0.10031 -0.04988,-0.1499 0.01631,0.0334 0.03435,0.066 0.05269,0.0984 0.01202,0.0632 0.02481,0.12597 0.03501,0.19034 -0.01213,-0.0463 -0.02409,-0.0927 -0.0377,-0.13881"
         inkscape:export-xdpi="96"
         inkscape:export-ydpi="96" />
      <g
         aria-label="pro egernos"
         style="font-variant:normal;font-weight:normal;font-size:33.3468px;font-family:MaiandraGD;-inkscape-font-specification:MaiandraGD-Regular;writing-mode:lr-tb;fill:#ffffff;fill-opacity:1;fill-rule:nonzero;stroke:none;stroke-width:0.914386"
         id="g6415"
         transform="matrix(0.30473827,0,0,0.30473827,3.5825192,193.22924)"
         inkscape:export-xdpi="96"
         inkscape:export-ydpi="96">
        <path
           d="m 16.015828,96.831747 q 1.042087,0.68387 2.133022,1.042087 1.090935,0.358217 2.198152,0.358217 2.540086,0 4.18463,-1.644543 1.644543,-1.660826 1.644543,-4.200912 0,-2.637783 -1.514282,-4.233478 -1.498,-1.595696 -3.989239,-1.595696 -1.05837,0 -2.230717,0.423348 -1.172348,0.407065 -2.328413,1.204913 -0.03257,1.530565 -0.06513,3.696152 -0.01628,2.149304 -0.03257,4.949912 z m -0.08141,2.31213 q -0.01628,0.341935 -0.03256,0.749 0,0.407063 0,1.172353 0,2.19815 0.195391,3.59845 0.211674,1.41659 0.651305,2.29585 -0.716435,0.3745 -1.270044,0.53732 -0.553608,0.16283 -1.074652,0.16283 -0.716434,0 -1.009521,-0.40706 -0.293087,-0.40707 -0.293087,-1.48172 0,-1.13978 0.211674,-5.6175 0.227956,-4.477718 0.227956,-7.831935 0,-3.517043 -0.195391,-5.129021 -0.195391,-1.628261 -0.635022,-2.670348 0.358218,-0.113978 0.700152,-0.162826 0.341935,-0.06513 0.732718,-0.06513 0.830413,0 1.302608,0.472196 0.472196,0.472195 0.504761,1.318891 1.18863,-0.862978 2.556369,-1.318891 1.384022,-0.472196 2.702913,-0.472196 3.305369,0 5.519804,2.198152 2.214434,2.198152 2.214434,5.470956 0,3.517043 -2.507521,6.008282 -2.491239,2.49124 -5.992,2.49124 -1.335173,0 -2.426108,-0.30937 -1.074652,-0.325653 -2.084174,-1.009523 z"
           style="fill:#ffffff;stroke-width:0.914386"
           id="path6395"
           inkscape:connector-curvature="0" />
        <path
           d="m 35.21115,87.648357 q 1.221196,-1.709674 2.328413,-2.540087 1.107217,-0.846695 2.181869,-0.846695 0.911826,0 1.546848,0.586174 0.651304,0.569891 0.651304,1.416586 0,0.553609 -0.3745,1.090935 -0.358217,0.521043 -1.090934,1.042087 -0.260522,-0.716435 -0.651305,-1.05837 -0.374499,-0.341934 -0.911825,-0.341934 -0.797848,0 -1.677109,0.797847 -0.879261,0.781566 -1.725956,2.263283 -0.08141,0.732717 -0.130261,1.498 -0.04885,0.749 -0.04885,1.465434 0,2.442391 0.260522,4.070652 0.276804,1.628261 0.846695,2.670347 -0.651304,0.341934 -1.286326,0.521044 -0.618739,0.17911 -1.221195,0.17911 -0.797848,0 -1.107217,-0.39078 -0.293087,-0.407069 -0.293087,-1.611982 0,-0.43963 0.162826,-3.3705 0.179108,-2.947152 0.179108,-5.470956 0,-2.067891 -0.162826,-3.175108 -0.162826,-1.107217 -0.537326,-1.953913 0.325652,-0.113978 0.635022,-0.162826 0.325652,-0.06513 0.667587,-0.06513 0.944391,0 1.400304,0.455913 0.455913,0.43963 0.455913,1.367739 0,0.211674 -0.03257,0.586174 -0.01628,0.358217 -0.06513,0.976956 z"
           style="fill:#ffffff;stroke-width:0.914386"
           id="path6397"
           inkscape:connector-curvature="0" />
        <path
           d="m 51.443967,98.525138 q 2.637782,0 4.314891,-1.758521 1.693391,-1.774804 1.693391,-4.542848 0,-2.702912 -1.660826,-4.396303 -1.644543,-1.709674 -4.282326,-1.709674 -2.68663,0 -4.347456,1.774804 -1.644543,1.758522 -1.644543,4.673108 0,2.588935 1.677109,4.282326 1.677108,1.677108 4.24976,1.677108 z m -0.195391,2.344692 q -3.777565,0 -6.154826,-2.328409 -2.37726,-2.328413 -2.37726,-5.975717 0,-3.87526 2.540086,-6.285086 2.540087,-2.426108 6.594456,-2.426108 3.663587,0 6.024565,2.295847 2.37726,2.295848 2.37726,5.812891 0,1.416587 -0.455913,2.800608 -0.43963,1.384022 -1.204913,2.360978 -1.449152,1.8725 -3.289086,2.816891 -1.823652,0.928105 -4.054369,0.928105 z"
           style="fill:#ffffff;stroke-width:0.914386"
           id="path6399"
           inkscape:connector-curvature="0" />
        <path
           d="m 85.198149,90.628074 q 1.074653,0.179109 2.360978,0.276804 1.302609,0.08141 2.800609,0.08141 2.035326,0 2.719195,-0.3745 0.68387,-0.3745 0.68387,-1.351456 0,-1.481717 -1.025805,-2.344695 -1.025804,-0.862979 -2.800608,-0.862979 -1.888782,0 -3.142543,1.204913 -1.253761,1.204913 -1.595696,3.3705 z m 9.476478,6.399065 q 0.358217,0.43963 0.521043,0.830412 0.179109,0.3745 0.179109,0.732718 0,0.879261 -1.318891,1.449151 -1.302609,0.55361 -3.419348,0.55361 -3.891543,0 -6.105977,-2.116739 -2.198152,-2.133022 -2.198152,-5.878022 0,-3.777564 2.214434,-6.171108 2.230717,-2.409825 5.715195,-2.409825 2.68663,0 4.412587,1.530565 1.725956,1.530565 1.725956,3.907825 0,1.8725 -1.432869,2.670348 -1.43287,0.797848 -4.8685,0.797848 -1.286326,0 -2.572652,-0.08141 -1.270043,-0.0977 -2.523804,-0.276805 v 0.227957 q 0,2.540086 1.498,4.021804 1.498,1.481717 4.070652,1.481717 1.204913,0 2.230717,-0.30937 1.025804,-0.325652 1.8725,-0.960673 z"
           style="fill:#ffffff;stroke-width:0.914386"
           id="path6401"
           inkscape:connector-curvature="0" />
        <path
           d="m 103.54167,99.436964 h 0.0326 q -1.35145,0.537326 -2.03532,1.318896 -0.66759,0.79784 -0.66759,1.80736 0,1.498 1.31889,2.40983 1.31889,0.92811 3.51704,0.92811 2.13302,0 3.45192,-0.83041 1.31889,-0.81413 1.31889,-2.10046 0,-1.93763 -6.62702,-3.468195 -0.21168,-0.04885 -0.30937,-0.06513 z m 2.13302,-6.610738 q 1.66082,0 2.73548,-0.960674 1.09093,-0.976956 1.09093,-2.442391 0,-1.530565 -1.04209,-2.458674 -1.0258,-0.944391 -2.71919,-0.944391 -1.74224,0 -2.81689,0.928109 -1.05837,0.911826 -1.05837,2.409826 0,1.514282 1.05837,2.491239 1.07465,0.976956 2.75176,0.976956 z m -3.20768,1.465435 q -1.57941,-0.797848 -2.37726,-1.970196 -0.781561,-1.18863 -0.781561,-2.735478 0,-2.491239 1.791091,-4.103217 1.80736,-1.62826 4.64054,-1.62826 0.81413,0 1.66082,0.244239 0.8467,0.244239 1.74224,0.716434 1.82366,-0.488478 2.70292,-0.87926 0.87926,-0.407066 1.1235,-0.814131 0.32565,0.341935 0.47219,0.716435 0.16283,0.3745 0.16283,0.781565 0,0.830413 -0.63502,1.286326 -0.61874,0.43963 -2.13303,0.651304 0.58618,0.732718 0.86298,1.465435 0.27681,0.732717 0.27681,1.530565 0,2.263282 -1.75852,3.793847 -1.75853,1.514283 -4.41259,1.514283 -0.32565,0 -0.70015,-0.01628 -0.35822,-0.03257 -0.73272,-0.08141 -0.30937,0.30937 -0.4722,0.618739 -0.16282,0.293087 -0.16282,0.586174 0,1.1235 3.12626,1.807369 0.73272,0.162826 1.13978,0.24424 3.06113,0.716434 4.13578,1.660825 1.07465,0.928111 1.07465,2.654071 0,2.47495 -2.23071,4.08693 -2.21444,1.61198 -5.7152,1.61198 -3.25652,0 -5.1453,-1.35146 -1.888783,-1.33517 -1.888783,-3.61473 0,-1.5957 0.928108,-2.80061 0.944395,-1.221202 2.768045,-2.002767 -0.39078,-0.358218 -0.60246,-0.732718 -0.19539,-0.3745 -0.19539,-0.797847 0,-0.537326 0.32565,-1.139783 0.34194,-0.602456 1.00952,-1.302608 z"
           style="fill:#ffffff;stroke-width:0.914386"
           id="path6403"
           inkscape:connector-curvature="0" />
        <path
           d="m 118.31158,90.628074 q 1.07466,0.179109 2.36098,0.276804 1.30261,0.08141 2.80061,0.08141 2.03533,0 2.7192,-0.3745 0.68386,-0.3745 0.68386,-1.351456 0,-1.481717 -1.0258,-2.344695 -1.0258,-0.862979 -2.80061,-0.862979 -1.88878,0 -3.14254,1.204913 -1.25376,1.204913 -1.5957,3.3705 z m 9.47648,6.399065 q 0.35822,0.43963 0.52104,0.830412 0.17911,0.3745 0.17911,0.732718 0,0.879261 -1.31889,1.449151 -1.30261,0.55361 -3.41935,0.55361 -3.89154,0 -6.10597,-2.116739 -2.19816,-2.133022 -2.19816,-5.878022 0,-3.777564 2.21444,-6.171108 2.23072,-2.409825 5.71519,-2.409825 2.68663,0 4.41259,1.530565 1.72596,1.530565 1.72596,3.907825 0,1.8725 -1.43287,2.670348 -1.43287,0.797848 -4.8685,0.797848 -1.28633,0 -2.57265,-0.08141 -1.27005,-0.0977 -2.52381,-0.276805 v 0.227957 q 0,2.540086 1.498,4.021804 1.498,1.481717 4.07065,1.481717 1.20492,0 2.23072,-0.30937 1.0258,-0.325652 1.8725,-0.960673 z"
           style="fill:#ffffff;stroke-width:0.914386"
           id="path6405"
           inkscape:connector-curvature="0" />
        <path
           d="m 135.61291,87.648357 q 1.2212,-1.709674 2.32842,-2.540087 1.10721,-0.846695 2.18187,-0.846695 0.91182,0 1.54684,0.586174 0.65131,0.569891 0.65131,1.416586 0,0.553609 -0.3745,1.090935 -0.35822,0.521043 -1.09094,1.042087 -0.26052,-0.716435 -0.6513,-1.05837 -0.3745,-0.341934 -0.91183,-0.341934 -0.79784,0 -1.67711,0.797847 -0.87926,0.781566 -1.72595,2.263283 -0.0814,0.732717 -0.13026,1.498 -0.0488,0.749 -0.0488,1.465434 0,2.442391 0.26052,4.070652 0.27681,1.628261 0.8467,2.670347 -0.65131,0.341934 -1.28633,0.521044 -0.61874,0.17911 -1.22119,0.17911 -0.79785,0 -1.10722,-0.39078 -0.29309,-0.407069 -0.29309,-1.611982 0,-0.43963 0.16283,-3.3705 0.17911,-2.947152 0.17911,-5.470956 0,-2.067891 -0.16283,-3.175108 -0.16283,-1.107217 -0.53733,-1.953913 0.32566,-0.113978 0.63503,-0.162826 0.32565,-0.06513 0.66758,-0.06513 0.94439,0 1.40031,0.455913 0.45591,0.43963 0.45591,1.367739 0,0.211674 -0.0326,0.586174 -0.0163,0.358217 -0.0651,0.976956 z"
           style="fill:#ffffff;stroke-width:0.914386"
           id="path6407"
           inkscape:connector-curvature="0" />
        <path
           d="m 147.96042,87.957726 q -0.0326,1.791087 -0.0977,3.858978 -0.0488,2.051609 -0.0488,2.31213 0,2.116739 0.19539,3.435631 0.19539,1.318891 0.61874,2.198151 -0.68387,0.358214 -1.25376,0.537324 -0.56989,0.16283 -1.1235,0.16283 -0.749,0 -1.0258,-0.42335 -0.27681,-0.423347 -0.27681,-1.774803 0,-0.293087 0.16283,-3.012283 0.17911,-2.735478 0.17911,-5.161586 0,-2.295848 -0.17911,-3.549608 -0.17911,-1.253761 -0.58617,-2.247 0.35821,-0.113978 0.71643,-0.179109 0.3745,-0.06513 0.71643,-0.06513 0.86298,0 1.36774,0.488478 0.50476,0.472196 0.5699,1.351456 1.22119,-0.87926 2.58893,-1.351456 1.36774,-0.488478 2.70291,-0.488478 1.62826,0 2.91459,0.716435 1.30261,0.700152 1.98648,1.953912 0.47219,0.862979 0.66758,2.019044 0.21168,1.139782 0.21168,3.484477 0,0.24424 -0.0326,1.156066 -0.0163,0.911826 -0.0163,1.579412 0,1.677109 0.21167,2.882022 0.22796,1.204913 0.66759,1.888782 -0.76528,0.374499 -1.33517,0.553609 -0.55361,0.17911 -1.00952,0.17911 -0.76529,0 -1.07466,-0.39078 -0.29308,-0.407069 -0.29308,-1.514286 0,-0.667587 0.0977,-2.865739 0.11398,-2.214435 0.11398,-3.761282 0,-2.947152 -0.89554,-4.266043 -0.89555,-1.335174 -2.88202,-1.335174 -1.00953,0 -2.18187,0.423348 -1.17235,0.407065 -2.37726,1.204912 z"
           style="fill:#ffffff;stroke-width:0.914386"
           id="path6409"
           inkscape:connector-curvature="0" />
        <path
           d="m 171.32547,98.525138 q 2.63779,0 4.3149,-1.758521 1.69339,-1.774804 1.69339,-4.542848 0,-2.702912 -1.66083,-4.396303 -1.64454,-1.709674 -4.28232,-1.709674 -2.68663,0 -4.34746,1.774804 -1.64454,1.758522 -1.64454,4.673108 0,2.588935 1.6771,4.282326 1.67711,1.677108 4.24976,1.677108 z m -0.19539,2.344692 q -3.77756,0 -6.15482,-2.328409 -2.37726,-2.328413 -2.37726,-5.975717 0,-3.87526 2.54008,-6.285086 2.54009,-2.426108 6.59446,-2.426108 3.66359,0 6.02456,2.295847 2.37727,2.295848 2.37727,5.812891 0,1.416587 -0.45592,2.800608 -0.43963,1.384022 -1.20491,2.360978 -1.44915,1.8725 -3.28909,2.816891 -1.82365,0.928105 -4.05437,0.928105 z"
           style="fill:#ffffff;stroke-width:0.914386"
           id="path6411"
           inkscape:connector-curvature="0" />
        <path
           d="m 183.69702,97.857551 q 0.58617,0.30937 1.1235,0.455913 0.53733,0.146544 1.04209,0.146544 1.17234,0 1.88878,-0.553609 0.71643,-0.569891 0.71643,-1.481717 0,-0.716435 -0.39078,-1.335174 -0.39078,-0.618739 -1.46543,-1.498 -0.17911,-0.13026 -0.48848,-0.390782 -2.75176,-2.279565 -2.75176,-4.038087 0,-0.716434 0.2768,-1.432869 0.27681,-0.716435 0.81413,-1.367739 1.02581,-1.221196 2.39355,-1.856217 1.38402,-0.651304 2.97971,-0.651304 0.78157,0 1.18863,0.309369 0.40707,0.293087 0.40707,0.862978 0,0.276805 -0.14655,0.667587 -0.14654,0.3745 -0.48847,0.960674 -0.43963,-0.179109 -0.83042,-0.260522 -0.39078,-0.0977 -0.76528,-0.0977 -1.35146,0 -2.19815,0.667586 -0.83041,0.651305 -0.83041,1.693392 0,1.139782 2.26328,3.077412 0.56989,0.488478 0.86298,0.765283 0.96067,0.846695 1.41658,1.677108 0.45592,0.814131 0.45592,1.677109 0,2.035326 -1.80737,3.517043 -1.79109,1.465441 -4.36374,1.465441 -0.89555,0 -1.38402,-0.35822 -0.4722,-0.35823 -0.4722,-1.009525 0,-0.30937 0.13026,-0.68387 0.13026,-0.3745 0.42335,-0.928109 z"
           style="fill:#ffffff;stroke-width:0.914386"
           id="path6413"
           inkscape:connector-curvature="0" />
      </g>
      <path
         inkscape:connector-curvature="0"
         id="path6417"
         style="fill:#53a30d;fill-opacity:1;fill-rule:nonzero;stroke:none;stroke-width:0.278648"
         d="m 10.310251,208.81526 c -0.01106,-0.0132 -0.02664,-0.0216 -0.04736,-0.0221 -0.8718669,-0.0199 -1.7470298,-0.0563 -2.5844524,0.24229 -0.6464272,0.23044 -1.5605246,0.82204 -1.5655734,1.60401 -0.00556,0.9009 1.2835296,0.59089 1.7744144,0.37043 0.4654052,-0.20891 0.8768999,-0.51295 1.280057,-0.81985 0.4533774,-0.34525 0.9735144,-0.72731 1.2518434,-1.23686 0.04215,-0.0772 -0.03123,-0.17382 -0.108971,-0.13749"
         inkscape:export-xdpi="96"
         inkscape:export-ydpi="96" />
      <path
         inkscape:connector-curvature="0"
         id="path6419"
         style="fill:#a3df38;fill-opacity:1;fill-rule:nonzero;stroke:none;stroke-width:0.278648"
         d="m 16.458802,198.83908 c -0.04281,-0.67966 -0.22464,-2.19847 -1.169877,-2.29508 -0.838583,-0.0856 -0.865706,1.32897 -0.791835,1.84333 0.08466,0.58951 0.233567,1.17986 0.430795,1.74112 0.181906,0.51749 0.617424,1.04272 0.704947,1.58178 0.0038,0.0241 0.02193,0.0371 0.04171,0.0399 -0.0033,0.008 -0.0063,0.0159 -0.01003,0.023 -0.02143,0.0474 0.05054,0.0937 0.08547,0.0556 0.704944,-0.76671 0.770423,-2.00888 0.708814,-2.98996"
         inkscape:export-xdpi="96"
         inkscape:export-ydpi="96" />
      <path
         inkscape:connector-curvature="0"
         id="path6421"
         style="fill:#53a30d;fill-opacity:1;fill-rule:nonzero;stroke:none;stroke-width:0.278648"
         d="m 19.342231,194.31053 c -0.706448,-0.26353 -1.18701,0.58418 -1.347371,1.13208 -0.126365,0.43154 -0.153536,0.87607 -0.169979,1.32302 -0.02087,0.56938 -0.04302,1.17797 0.09631,1.73323 0.0071,0.027 0.0295,0.0472 0.05489,0.0566 -0.005,0.004 -0.0086,0.009 -0.01286,0.0124 -0.05,0.0442 0.0084,0.1273 0.06263,0.0848 0.808694,-0.63307 1.482748,-1.45493 1.799735,-2.446 0.187583,-0.58712 0.242081,-1.62532 -0.483323,-1.89591"
         inkscape:export-xdpi="96"
         inkscape:export-ydpi="96" />
      <path
         inkscape:connector-curvature="0"
         id="path6423"
         style="fill:#70cc0f;fill-opacity:1;fill-rule:nonzero;stroke:none;stroke-width:0.278648"
         d="m 21.951256,203.27745 c -0.424414,-0.48105 -1.218707,-1.11204 -1.91388,-0.83197 -0.703277,0.28357 0.184219,1.13786 0.44039,1.42118 0.311182,0.34422 0.661892,0.66038 1.056812,0.90598 0.160046,0.0996 0.331055,0.19496 0.505924,0.26692 0.215481,0.0888 0.466905,0.11094 0.644849,0.27116 0.03116,0.0277 0.0658,0.0229 0.09196,0.003 0.03083,-0.007 0.05916,-0.0307 0.06596,-0.0688 0.115633,-0.64495 -0.485043,-1.50664 -0.89199,-1.96762"
         inkscape:export-xdpi="96"
         inkscape:export-ydpi="96" />
      <path
         inkscape:connector-curvature="0"
         id="path6425"
         style="fill:#70cc0f;fill-opacity:1;fill-rule:nonzero;stroke:none;stroke-width:0.278648"
         d="m 21.509313,206.68737 c -0.199045,-0.0415 -0.451718,0.0938 -0.595408,0.2367 -0.481095,0.47814 -0.79366,1.10301 -0.932122,1.76374 0.0411,0.0324 1.218764,-0.54702 1.595555,-1.05068 0.141211,-0.1891 0.264683,-0.50782 0.16727,-0.74039 -0.05279,-0.12583 -0.137521,-0.18893 -0.235295,-0.20937"
         inkscape:export-xdpi="96"
         inkscape:export-ydpi="96" />
      <path
         inkscape:connector-curvature="0"
         id="path6427"
         style="fill:#53a30d;fill-opacity:1;fill-rule:nonzero;stroke:none;stroke-width:0.278648"
         d="m 19.303933,204.45854 c -0.09835,-0.43534 -0.417631,-1.16319 -0.993976,-0.84814 -0.579617,0.31662 -0.466595,1.21652 -0.34764,1.74118 0.141465,0.62506 0.499061,1.36868 1.093746,1.68046 0.04516,0.0238 0.09627,-0.01 0.101655,-0.0532 0.0097,-0.008 0.01795,-0.0193 0.02224,-0.0341 0.228612,-0.81314 0.311366,-1.65601 0.123867,-2.48624"
         inkscape:export-xdpi="96"
         inkscape:export-ydpi="96" />
      <path
         inkscape:connector-curvature="0"
         id="path6429"
         style="fill:#53a30d;fill-opacity:1;fill-rule:nonzero;stroke:none;stroke-width:0.278648"
         d="m 24.308144,200.27819 c -0.305766,-0.59055 -0.617032,-1.17877 -1.057645,-1.68271 -0.498325,-0.57006 -1.87121,-1.66014 -2.656328,-0.97204 -0.899185,0.78813 0.09511,2.27315 0.670689,2.90478 0.910786,0.99949 2.217483,1.63323 3.546354,1.85787 0.04791,0.008 0.08939,-0.0261 0.104801,-0.0681 0.01136,-0.0143 0.02012,-0.0304 0.02178,-0.0521 0.05197,-0.68594 -0.32355,-1.39628 -0.62961,-1.98759"
         inkscape:export-xdpi="96"
         inkscape:export-ydpi="96" />
      <path
         inkscape:connector-curvature="0"
         id="path6431"
         style="fill:#a3df38;fill-opacity:1;fill-rule:nonzero;stroke:none;stroke-width:0.278648"
         d="m 23.422456,196.09812 c -0.0019,-0.67491 -0.07985,-1.41899 -0.468151,-1.99106 -0.188394,-0.27767 -0.461443,-0.65299 -0.842551,-0.62693 -0.856462,0.0584 -0.470775,1.44316 -0.28672,1.91168 0.218006,0.555 0.481805,1.03954 1.479983,1.94943 0.08185,-0.43737 0.118088,-1.03858 0.117439,-1.24312"
         inkscape:export-xdpi="96"
         inkscape:export-ydpi="96" />
      <path
         inkscape:connector-curvature="0"
         id="path6433"
         style="fill:#70cc0f;fill-opacity:1;fill-rule:nonzero;stroke:none;stroke-width:0.278648"
         d="m 27.519516,196.10744 c -0.313032,-0.73787 -0.994302,-1.81116 -1.949562,-1.63611 -0.953204,0.17473 -0.722567,1.46906 -0.460414,2.09838 0.463675,1.11283 1.28331,2.20795 2.369631,2.77481 0.03116,0.0812 0.17811,0.0995 0.22233,0.004 0.436642,-0.94139 0.20955,-2.31806 -0.181985,-3.24095"
         inkscape:export-xdpi="96"
         inkscape:export-ydpi="96" />
      <path
         inkscape:connector-curvature="0"
         id="path6435"
         style="fill:#53a30d;fill-opacity:1;fill-rule:nonzero;stroke:none;stroke-width:0.278648"
         d="m 30.084921,200.08562 c -0.512142,-0.49508 -1.239062,0.1208 -1.533369,0.54614 -0.469413,0.67816 -0.919547,1.63797 -0.818155,2.47316 0.0015,0.009 0.0039,0.0174 0.008,0.0237 -0.0185,0.007 -0.0366,0.0129 -0.05537,0.0189 -0.0861,0.0283 -0.04533,0.15903 0.0417,0.13446 0.448502,-0.12652 0.934874,-0.36904 1.33771,-0.59575 0.403713,-0.22707 0.748728,-0.58106 0.976134,-0.98232 0.243124,-0.42892 0.456226,-1.21952 0.04357,-1.61841"
         inkscape:export-xdpi="96"
         inkscape:export-ydpi="96" />
      <path
         inkscape:connector-curvature="0"
         id="path6437"
         style="fill:#53a30d;fill-opacity:1;fill-rule:nonzero;stroke:none;stroke-width:0.278648"
         d="m 33.660966,195.35053 c -0.888203,-0.19761 -1.544943,0.72867 -1.776614,1.45311 -0.36208,1.13288 -0.307057,2.37355 0.08031,3.49289 0.01314,0.038 0.03819,0.0607 0.06675,0.0713 0.0098,0.0438 0.06658,0.0766 0.108924,0.0353 0.835212,-0.81593 1.847402,-1.47185 2.22284,-2.64428 0.247733,-0.77393 0.32954,-2.17862 -0.702219,-2.40829"
         inkscape:export-xdpi="96"
         inkscape:export-ydpi="96" />
      <path
         inkscape:connector-curvature="0"
         id="path6439"
         style="fill:#a3df38;fill-opacity:1;fill-rule:nonzero;stroke:none;stroke-width:0.278648"
         d="m 29.796624,198.75364 c -0.01645,-0.0916 0.623841,-0.92449 0.742497,-1.13489 0.240274,-0.42624 0.438525,-0.87991 0.538837,-1.36056 0.06801,-0.32593 0.07125,-1.69892 -0.621064,-1.30339 -0.125036,0.0714 -0.208551,0.19679 -0.280111,0.32166 -0.306783,0.53609 -0.464183,1.13661 -0.483786,1.75246 -0.01343,0.42441 0.07702,1.57573 0.103627,1.72472"
         inkscape:export-xdpi="96"
         inkscape:export-ydpi="96" />
      <path
         inkscape:connector-curvature="0"
         id="path6441"
         style="fill:#70cc0f;fill-opacity:1;fill-rule:nonzero;stroke:none;stroke-width:0.278648"
         d="m 38.680308,199.60875 c -0.505926,-0.57811 -1.481292,0.13196 -1.866742,0.51935 -0.589245,0.59232 -1.113422,1.45767 -1.224143,2.30172 -0.0037,2.2e-4 -0.0058,2.2e-4 -0.0085,0.001 -0.148341,0.0131 -0.141523,0.26583 0.0097,0.26462 0.522071,-0.004 0.998496,-0.25154 1.466696,-0.45719 0.491718,-0.21588 0.978651,-0.47336 1.345363,-0.87644 0.372145,-0.40887 0.707849,-1.26116 0.277546,-1.75301"
         inkscape:export-xdpi="96"
         inkscape:export-ydpi="96" />
      <path
         inkscape:connector-curvature="0"
         id="path6443"
         style="fill:#70cc0f;fill-opacity:1;fill-rule:nonzero;stroke:none;stroke-width:0.278648"
         d="m 33.796274,206.98352 c -0.132595,-0.53645 -0.928824,-0.56673 -1.353014,-0.52094 -0.742099,0.0799 -1.448157,0.36055 -2.048456,0.8025 -0.121182,0.044 -0.163206,0.22849 -0.0082,0.27243 0.75519,0.21358 1.558266,0.45367 2.354256,0.34015 0.400091,-0.0571 1.189468,-0.35185 1.055393,-0.89414"
         inkscape:export-xdpi="96"
         inkscape:export-ydpi="96" />
      <path
         inkscape:connector-curvature="0"
         id="path6445"
         style="fill:#53a30d;fill-opacity:1;fill-rule:nonzero;stroke:none;stroke-width:0.278648"
         d="m 29.805628,208.78893 c -0.238942,-0.49431 -1.083947,-0.37726 -1.516314,-0.31812 -0.465153,0.0636 -0.923281,0.1768 -1.364804,0.33553 -0.367846,0.1324 -0.752345,0.26312 -0.993431,0.58421 -0.01567,0.001 -0.03116,1.5e-4 -0.04681,0.002 -0.130161,0.0103 -0.127704,0.18699 -2.06e-4,0.20054 1.0055,0.10627 1.991322,0.36492 3.003065,0.13613 0.412931,-0.0934 1.195847,-0.36574 0.918453,-0.93963"
         inkscape:export-xdpi="96"
         inkscape:export-ydpi="96" />
      <path
         inkscape:connector-curvature="0"
         id="path6447"
         style="fill:#53a30d;fill-opacity:1;fill-rule:nonzero;stroke:none;stroke-width:0.278648"
         d="m 36.835182,203.51713 c -0.567188,-0.11795 -1.165621,0.59165 -1.385743,1.02367 -0.319684,0.62767 -0.385435,1.32646 -0.328322,2.0188 0.0052,0.0576 0.06084,0.073 0.10462,0.0557 0.02154,0.0203 0.05059,0.032 0.08165,0.0258 0.703049,-0.1282 2.7568,-2.86867 1.527796,-3.12435"
         inkscape:export-xdpi="96"
         inkscape:export-ydpi="96" />
      <path
         inkscape:connector-curvature="0"
         id="path6449"
         style="fill:#a3df38;fill-opacity:1;fill-rule:nonzero;stroke:none;stroke-width:0.278648"
         d="m 40.265285,205.83036 c 0.124849,-0.0511 0.249041,-0.11058 0.370674,-0.17805 0.359731,-0.22294 0.857495,-0.60059 0.740211,-1.08542 -0.04372,-0.18038 -0.141437,-0.28344 -0.26707,-0.33594 -0.551297,-0.0832 -1.143131,0.31524 -1.665441,0.68633 -0.571327,0.40596 -1.189751,0.85289 -1.70592,1.3946 0.83773,0.0521 1.7407,-0.15871 2.527546,-0.48152"
         inkscape:export-xdpi="96"
         inkscape:export-ydpi="96" />
      <path
         inkscape:connector-curvature="0"
         id="path6451"
         style="fill:#70cc0f;fill-opacity:1;fill-rule:nonzero;stroke:none;stroke-width:0.278648"
         d="m 41.823875,209.07206 c -0.262995,-0.73445 -1.354099,-0.99772 -2.027773,-1.06379 -0.884181,-0.0867 -1.789256,0.0862 -2.57059,0.50937 -0.02511,0.0141 -0.03835,0.0332 -0.04218,0.0536 -0.10335,0.0328 -0.172513,0.16033 -0.06537,0.24137 0.373485,0.28253 0.802794,0.43373 1.244022,0.57803 0.556174,0.18185 1.10671,0.36249 1.692259,0.42103 0.468541,0.0468 2.096836,0.17311 1.769667,-0.73959"
         inkscape:export-xdpi="96"
         inkscape:export-ydpi="96" />
      <path
         inkscape:connector-curvature="0"
         id="path6453"
         style="fill:#53a30d;fill-opacity:1;fill-rule:nonzero;stroke:none;stroke-width:0.278648"
         d="m 39.865298,211.31622 c -1.174192,-0.28214 -2.598267,0.0287 -3.680386,0.51072 -0.01808,0.008 -0.02962,0.021 -0.03771,0.0363 -0.0058,-0.003 -0.01093,-0.004 -0.01685,-0.005 -0.227661,-0.0522 -0.283763,0.29311 -0.06413,0.35283 0.261422,0.0712 0.460667,0.33301 0.689221,0.46924 0.220489,0.13133 0.472941,0.21977 0.715771,0.29816 0.571504,0.18461 1.160219,0.30155 1.761449,0.31638 0.607631,0.0153 1.725888,-0.0299 2.030487,-0.695 0.372499,-0.81299 -0.846091,-1.1508 -1.39843,-1.28345"
         inkscape:export-xdpi="96"
         inkscape:export-ydpi="96" />
      <path
         inkscape:connector-curvature="0"
         id="path6455"
         style="fill:#70cc0f;fill-opacity:1;fill-rule:nonzero;stroke:none;stroke-width:0.278648"
         d="m 36.70845,216.18855 c 0.09525,-0.20141 0.140921,-0.44806 0.128949,-0.61406 -0.02956,-0.41049 -0.158295,-0.83058 -0.318463,-1.20696 -0.295232,-0.69437 -0.73241,-1.32922 -1.262856,-1.86484 -0.167548,-0.1689 -0.146987,0.32832 -0.155264,0.42689 -0.01936,0.22864 -0.03284,0.45767 -0.03572,0.68718 -0.0058,0.44669 0.02946,0.89525 0.136715,1.32991 0.134996,0.5484 0.408144,1.11939 0.814455,1.45968 0.317312,0.2658 0.555552,0.0703 0.69197,-0.2178"
         inkscape:export-xdpi="96"
         inkscape:export-ydpi="96" />
      <path
         inkscape:connector-curvature="0"
         id="path6457"
         style="fill:#a3df38;fill-opacity:1;fill-rule:nonzero;stroke:none;stroke-width:0.278648"
         d="m 34.349068,212.22686 c 0.0072,-0.17283 0.0016,-0.29907 -0.03194,-0.29528 -0.175529,0.0206 -0.421159,0.30765 -0.555557,0.42436 -0.198727,0.17248 -0.38995,0.35397 -0.562487,0.55283 -0.505593,0.58325 -1.01797,1.56962 -0.289864,2.19637 0.946412,0.81466 1.280114,-1.43997 1.352992,-1.95127 0.0064,-0.0448 0.07276,-0.57975 0.0868,-0.92701"
         inkscape:export-xdpi="96"
         inkscape:export-ydpi="96" />
      <path
         inkscape:connector-curvature="0"
         id="path6459"
         style="fill:#53a30d;fill-opacity:1;fill-rule:nonzero;stroke:none;stroke-width:0.278648"
         d="m 13.043411,203.93281 c -5.46e-4,-0.01 -5.46e-4,-0.0196 -0.0049,-0.029 -0.200147,-0.51294 -0.327164,-1.01273 -0.619825,-1.49138 -0.30487,-0.49845 -0.652249,-0.98052 -1.052863,-1.4071 -0.572724,-0.61004 -1.568845,-0.93774 -1.9614905,0.0665 -0.3661855,0.93673 0.5756735,1.89799 1.2454765,2.40887 0.408276,0.31137 0.85012,0.58546 1.354753,0.70473 0.296761,0.0701 0.835864,0.20288 1.070119,-0.0616 0.05466,-0.0617 0.02905,-0.1537 -0.03139,-0.19088"
         inkscape:export-xdpi="96"
         inkscape:export-ydpi="96" />
      <path
         inkscape:connector-curvature="0"
         id="path6461"
         style="fill:#70cc0f;fill-opacity:1;fill-rule:nonzero;stroke:none;stroke-width:0.278648"
         d="m 12.915377,197.3929 c -0.117786,-0.46569 -0.562402,-1.21875 -1.157165,-1.11911 -0.09114,0.0156 -0.177388,0.0533 -0.255051,0.10274 -0.218796,0.13929 -0.416182,0.40413 -0.443573,0.66518 -0.03545,0.33729 0.102117,0.73082 0.224857,1.03847 0.326306,0.81806 0.811295,1.54981 1.475081,2.1323 0.230249,0.20218 0.490755,0.34929 0.746445,0.50457 -0.10073,-0.0611 -0.119992,-1.46203 -0.590594,-3.32415"
         inkscape:export-xdpi="96"
         inkscape:export-ydpi="96" />
      <path
         inkscape:connector-curvature="0"
         id="path6463"
         style="fill:#a3df38;fill-opacity:1;fill-rule:nonzero;stroke:none;stroke-width:0.278648"
         d="m 14.220478,206.41203 c -0.0082,-0.0577 -0.01644,-0.11382 -0.0239,-0.16722 -0.05932,-0.41901 -0.316363,-1.46031 -0.958673,-1.23438 -0.397067,0.13985 -0.373768,0.61617 -0.231913,0.93749 0.231581,0.5247 0.624321,0.98155 1.14737,1.22582 0.03232,0.0153 0.06153,0.0298 0.09582,0.0339 0.04236,-0.24015 0.008,-0.53513 -0.02868,-0.79564"
         inkscape:export-xdpi="96"
         inkscape:export-ydpi="96" />
      <path
         inkscape:connector-curvature="0"
         id="path6465"
         style="fill:#a3df38;fill-opacity:1;fill-rule:nonzero;stroke:none;stroke-width:0.278648"
         d="m 11.675448,206.19893 c -0.04066,-0.43042 -0.310105,-0.87638 -0.50346,-1.2537 -0.186494,-0.36417 -0.40425,-0.72753 -0.722119,-0.99347 -0.533925,-0.44701 -1.5717252,-0.75853 -2.1262906,-0.18194 -0.5928762,0.61661 0.049993,1.29779 0.5713715,1.68116 0.3536283,0.26007 0.7546541,0.44137 1.1532021,0.62046 0.24992,0.1124 0.500531,0.24005 0.764369,0.31697 0.220599,0.0645 0.453292,0.0744 0.66932,0.1535 0.217607,0.0795 0.338785,-0.21228 0.193607,-0.34298"
         inkscape:export-xdpi="96"
         inkscape:export-ydpi="96" />
      <path
         inkscape:connector-curvature="0"
         id="path6467"
         style="fill:#70cc0f;fill-opacity:1;fill-rule:nonzero;stroke:none;stroke-width:0.278648"
         d="m 8.9828587,206.95715 c -0.3851296,-0.16543 -0.8170143,-0.2832 -1.23407,-0.32702 -0.4973755,-0.0523 -1.2932473,0.0203 -1.3072403,0.676 -0.011019,0.52349 0.6652431,0.66215 1.0713904,0.70729 0.769481,0.0853 1.6928381,-0.17215 2.3709302,-0.52107 0.01067,-0.005 0.02004,-0.012 0.0281,-0.0191 -0.321573,-0.16219 -0.6347379,-0.39015 -0.9291354,-0.51664"
         inkscape:export-xdpi="96"
         inkscape:export-ydpi="96" />
      <path
         inkscape:connector-curvature="0"
         id="path6469"
         style="fill:#70cc0f;fill-opacity:1;fill-rule:nonzero;stroke:none;stroke-width:0.278648"
         d="m 11.864374,211.52077 c -0.02641,-0.11532 -0.125972,-0.16837 -0.217458,-0.16287 -0.03435,-0.0136 -0.07496,-0.0136 -0.115164,0.01 -0.923097,0.52363 -1.630112,1.40975 -2.030194,2.38723 -0.1638646,0.40046 -0.3039213,0.86514 -0.1642059,1.29217 0.074242,0.22704 0.1989779,0.50861 0.4660309,0.54307 0.485293,0.0628 1.037961,-0.55579 1.278086,-0.90264 0.283238,-0.4092 0.454077,-0.87907 0.585371,-1.35554 0.162542,-0.59057 0.337334,-1.20006 0.197534,-1.81085"
         inkscape:export-xdpi="96"
         inkscape:export-ydpi="96" />
      <path
         inkscape:connector-curvature="0"
         id="path6471"
         style="fill:#a3df38;fill-opacity:1;fill-rule:nonzero;stroke:none;stroke-width:0.278648"
         d="m 14.297891,213.0533 c 0.05482,-0.0571 0.103467,-0.11666 0.144142,-0.1712 0.451415,-0.6069 0.881731,-1.48851 0.743269,-2.26613 -0.01931,-0.10823 -0.633316,0.32703 -0.677708,0.36381 -0.2357,0.19508 -0.46634,0.39801 -0.667613,0.62909 -0.357642,0.41045 -0.880473,1.22883 -0.255813,1.64651 0.254556,0.17024 0.521535,-0.002 0.713723,-0.20208"
         inkscape:export-xdpi="96"
         inkscape:export-ydpi="96" />
      <path
         inkscape:connector-curvature="0"
         id="path6473"
         style="fill:#53a30d;fill-opacity:1;fill-rule:nonzero;stroke:none;stroke-width:0.278648"
         d="m 16.578469,214.45856 c 0.02428,-0.0109 0.04818,-0.0212 0.07162,-0.0333 0.51548,-0.25159 0.89795,-0.71957 1.33301,-1.08165 0.361832,-0.30128 0.865705,-0.73458 1.386305,-0.9058 0.01796,-0.0289 0.03496,-0.0585 0.05021,-0.0882 0.03842,-0.0746 0.01709,-0.14072 -0.02857,-0.18152 -0.0087,-0.0229 -0.02409,-0.0439 -0.04857,-0.0582 -0.848097,-0.49507 -2.142843,-0.35679 -3.014445,-0.004 -0.676539,0.27359 -1.700072,1.08433 -1.386474,1.9382 0.25772,0.70156 1.05833,0.66935 1.63684,0.4144"
         inkscape:export-xdpi="96"
         inkscape:export-ydpi="96" />
      <text
         id="text6477"
         y="230.44572"
         x="3.9073207"
         style="font-style:normal;font-weight:normal;font-size:4.99697px;line-height:1.25;font-family:sans-serif;letter-spacing:0px;word-spacing:0px;fill:#000000;fill-opacity:1;stroke:#ffffff;stroke-width:0.124925"
         xml:space="preserve"
         inkscape:export-xdpi="96"
         inkscape:export-ydpi="96"
         transform="scale(0.98688422,1.0132901)"><tspan
           style="font-style:normal;font-variant:normal;font-weight:normal;font-stretch:normal;font-family:Calibri;-inkscape-font-specification:Calibri;fill:#ffffff;stroke:#ffffff;stroke-width:0.124925"
           y="230.44572"
           x="3.9073207"
           id="tspan6475"
           sodipodi:role="line">SERVICIO INTEGRAL DE SALUD</tspan></text>
    </g>
  </g>
</svg>
