<?xml version="1.0" encoding="UTF-8" standalone="no"?>
<!-- Created with Inkscape (http://www.inkscape.org/) -->

<svg
   width="608.00787"
   height="400"
   viewBox="0 0 160.86918 105.83348"
   version="1.1"
   id="svg1671"
   inkscape:version="1.1.1 (3bf5ae0d25, 2021-09-20, custom)"
   sodipodi:docname="LogoMarcaSlogan.svg"
   xmlns:inkscape="http://www.inkscape.org/namespaces/inkscape"
   xmlns:sodipodi="http://sodipodi.sourceforge.net/DTD/sodipodi-0.dtd"
   xmlns="http://www.w3.org/2000/svg"
   xmlns:svg="http://www.w3.org/2000/svg"
   xmlns:rdf="http://www.w3.org/1999/02/22-rdf-syntax-ns#"
   xmlns:cc="http://creativecommons.org/ns#"
   xmlns:dc="http://purl.org/dc/elements/1.1/">
  <defs
     id="defs1665" />
  <sodipodi:namedview
     id="base"
     pagecolor="#ffffff"
     bordercolor="#666666"
     borderopacity="1.0"
     inkscape:pageopacity="0.0"
     inkscape:pageshadow="2"
     inkscape:zoom="0.98994949"
     inkscape:cx="319.20821"
     inkscape:cy="191.42391"
     inkscape:document-units="mm"
     inkscape:current-layer="layer1"
     showgrid="false"
     inkscape:window-width="1366"
     inkscape:window-height="703"
     inkscape:window-x="0"
     inkscape:window-y="0"
     inkscape:window-maximized="1"
     units="px"
     inkscape:pagecheckerboard="0" />
  <metadata
     id="metadata1668">
    <rdf:RDF>
      <cc:Work
         rdf:about="">
        <dc:format>image/svg+xml</dc:format>
        <dc:type
           rdf:resource="http://purl.org/dc/dcmitype/StillImage" />
        <dc:title />
      </cc:Work>
    </rdf:RDF>
  </metadata>
  <g
     inkscape:label="Capa 1"
     inkscape:groupmode="layer"
     id="layer1"
     transform="translate(0,-191.16652)">
    <rect
       style="opacity:0.37600002;fill:#000000;fill-opacity:0.99086758;stroke:#ffffff;stroke-width:0.26458332"
       id="rect1786"
       width="456.59521"
       height="311.45236"
       x="-75.595238"
       y="26.369053"
       ry="14.605846" />
    <path
       inkscape:connector-curvature="0"
       id="path6391"
       style="fill:#ffffff;fill-opacity:1;fill-rule:nonzero;stroke:none;stroke-width:0.71291876"
       d="m 159.12076,283.36929 c -3.13379,-1.76838 -6.97713,-2.36013 -10.4848,-2.93115 -52.465085,-8.54262 -94.668013,-10.327 -146.4402802,0.16758 -0.5207691,0.10512 -0.4719934,0.92349 0.075955,0.84145 46.3902752,-5.16928 98.0498652,-6.60501 144.6488652,0.53455 4.00175,0.61305 7.93182,1.66213 11.92557,2.26152 0.53205,0.0797 0.72163,-0.62184 0.27459,-0.87398"
       inkscape:export-xdpi="96"
       inkscape:export-ydpi="96" />
    <path
       inkscape:connector-curvature="0"
       id="path6393"
       style="fill:#ffffff;fill-opacity:1;fill-rule:nonzero;stroke:none;stroke-width:0.71291876"
       d="m 91.709257,231.06734 c -0.143397,-0.0292 -0.28653,-0.0579 -0.429284,-0.0895 -0.177167,-0.0133 -0.353461,-0.0268 -0.52841,-0.0462 0.0169,-0.0207 0.02878,-0.041 0.03867,-0.0612 -0.31941,-0.0686 -0.633591,-0.13297 -0.939022,-0.1736 -1.379266,-0.18398 -2.711887,-0.39603 -4.017335,-0.87973 -0.62804,-0.0965 -1.270464,-0.16654 -1.873525,-0.12147 -0.967863,0.0715 -1.972232,0.54919 -2.886715,0.85831 -0.64887,0.21935 -1.276008,0.46615 -1.893898,0.74023 1.95931,-2.53875 2.877814,-5.78905 4.082011,-8.72201 0.08703,-0.21065 -0.09472,-0.39435 -0.2639,-0.37223 -0.121327,-0.12626 -0.338864,-0.14675 -0.439616,0.0644 -0.709668,1.49831 -1.517441,2.97288 -2.318129,4.42454 -3.054196,5.54153 -5.442337,6.94707 -11.278053,9.55329 -1.854169,0.82795 -10.766869,4.09885 -11.600468,5.44143 -0.664677,1.07016 -1.139124,2.31604 -1.684144,3.48156 -0.09225,-0.47013 -0.234484,-0.93671 -0.321947,-1.40853 -1.095341,-5.88675 2.60893,-11.70282 5.638051,-16.63853 0.917023,0.29354 1.823787,0.62495 2.752432,0.888 0.901914,0.25564 1.820768,0.69803 2.770205,0.73209 0.929336,0.0338 1.754473,-0.3861 2.587875,-0.73374 1.04299,-0.43499 2.146152,-0.67444 3.198088,-1.07152 0.06565,-0.0169 0.130851,-0.0343 0.196024,-0.0492 0.349043,-0.0818 0.209963,-0.63178 -0.13213,-0.6015 -2.19971,0.19581 -4.251493,1.41624 -6.526577,1.18736 -0.822919,-0.0831 -1.591843,-0.41663 -2.394965,-0.59158 -0.227143,-0.0506 -0.456072,-0.088 -0.685257,-0.12533 -0.433252,-0.11915 -0.869782,-0.21344 -1.310127,-0.26087 -0.0079,-0.003 -0.01274,-0.003 -0.0162,-0.007 0.232617,-0.29163 0.498747,-0.56697 0.816433,-0.82107 6.898067,-5.50723 15.76929,-5.7664 17.317414,-7.04502 0.967545,-0.79923 1.814909,-1.7678 2.722457,-2.63562 1.000191,-0.95646 2.304063,-1.72066 3.044766,-2.9209 0.06696,-0.11012 0.0616,-0.21907 0.01698,-0.30237 0.02087,-0.0277 0.04173,-0.0528 0.05872,-0.0812 0.164046,-0.2399 -0.168534,-0.49099 -0.358121,-0.2724 -0.750226,0.8682 -1.623761,1.44478 -2.483415,2.18148 -0.872723,0.74812 -1.702268,1.53969 -2.589627,2.27594 -0.885322,0.73401 -7.232964,3.40402 -4.451842,-0.79704 0.351788,-0.53164 0.539,-1.15448 0.89344,-1.67752 0.121471,-0.17915 -0.01029,-0.47914 -0.217376,-0.47514 -0.114423,-0.10773 -0.286145,-0.13762 -0.409652,0.0235 -1.509229,1.96086 -2.594613,4.05232 -2.693217,1.08017 -0.04998,-1.50921 -0.03303,-2.86982 0.480161,-4.30466 0.418925,-1.17113 0.813939,-2.35995 1.292034,-3.50805 0.53312,-1.28095 1.188936,-2.43343 1.629092,-3.76244 0.08171,-0.24572 -0.196473,-0.51852 -0.425309,-0.32815 -0.945838,0.78576 -1.530206,2.03873 -2.149837,3.08037 -0.342145,0.57516 -0.596793,1.1915 -0.858932,1.80549 -0.286754,0.67188 -0.680216,1.25791 -1.007007,1.90448 -0.285069,0.56396 -0.284945,0.94368 -0.277695,1.55741 0.01273,0.95489 -0.190362,1.92105 -0.349955,2.85874 -1.356607,7.9651 -3.205902,5.19876 -10.035682,10.32669 -4.300967,3.22957 -7.19266,14.28776 -7.218942,13.90703 -0.324545,-4.7407 1.072874,-9.49815 3.25417,-13.67666 0.682906,-1.30795 1.402099,-2.61973 2.174904,-3.8768 0.706865,-1.1503 1.672098,-2.03625 2.613426,-2.99004 0.941276,-0.95411 1.788655,-1.86954 2.50627,-3.00371 0.115276,-0.18226 0.23482,-0.35933 0.349387,-0.53572 0.432668,-0.85866 0.633354,-1.56571 0.178046,-1.69364 -0.280076,-0.27157 -0.477097,-0.18491 -0.591303,0.25986 -0.108528,0.18322 -0.212351,0.36875 -0.312032,0.55696 -0.158429,0.27649 -0.297855,0.51394 -0.499102,0.76384 -0.357922,0.44458 -0.778466,0.84778 -1.279278,1.12057 -0.144286,0.14632 -0.292595,0.29044 -0.448212,0.4317 -0.155599,0.14141 -0.315605,0.27863 -0.477303,0.4141 0.04546,-0.36743 0.104044,-0.73225 0.156039,-1.10991 0.198432,-1.43637 0.368756,-2.83182 0.38088,-4.28258 0.322181,-1.63958 0.506889,-3.27162 0.165923,-4.94674 -0.369212,-1.8142 -1.062808,-3.81445 -2.187365,-5.30029 -0.0711,-0.0941 -0.214439,-0.0774 -0.287009,-0.003 -0.12033,0.0328 -0.21317,0.1389 -0.163491,0.29585 0.42515,1.33802 0.610509,2.75344 0.986598,4.1068 0.201889,0.72701 0.468605,1.34673 0.445975,2.1183 -0.02194,0.73601 -0.08619,1.454 -0.07588,2.19366 0.01435,0.98732 -0.04155,1.97786 -0.104718,2.96623 -0.246564,1.38928 -0.537762,2.77145 -0.720641,4.17108 -0.684043,-0.33122 -1.368527,-0.63502 -1.943849,-1.19233 -0.825973,-0.79946 -1.92351,-1.16236 -2.775658,-1.93702 -0.84272,-0.76626 -1.677365,-1.51057 -2.448532,-2.35189 -0.681632,-0.74423 -1.368516,-1.74403 -2.234865,-2.30575 -0.07631,-0.0746 -0.151761,-0.15099 -0.230191,-0.2244 -0.24816,-0.23177 -0.649103,0.091 -0.46054,0.38098 0.103199,0.159 0.212597,0.31315 0.320068,0.46865 0.170989,0.30045 0.386832,0.58851 0.622693,0.86335 0.426739,0.56505 0.871946,1.11642 1.326645,1.66314 0.754417,0.907 1.32292,1.99027 2.17264,2.81369 0.817066,0.79131 1.832995,1.4157 2.779961,2.03758 0.694745,0.45627 1.484484,0.80592 2.185743,1.26403 -0.253599,0.21865 -0.501198,0.44375 -0.736031,0.68183 -0.976859,0.99107 -1.556461,2.30427 -2.252042,3.49147 -0.820621,1.39991 -1.640149,2.79497 -2.394122,4.23221 -1.885487,-1.36554 -2.604886,-2.69313 -3.94112,-4.52234 -0.775999,-1.06271 -1.64214,-2.07243 -2.336958,-3.19099 -0.119492,-0.19212 -0.377483,-0.15565 -0.499969,-0.0147 -0.112745,0.006 -0.217622,0.0907 -0.173579,0.2298 0.974284,3.08105 2.23672,6.03512 4.89155,8.00806 0.330607,0.24553 0.980685,0.52931 1.446936,0.8765 -2.386284,6.53926 -2.299362,7.9313 -2.735063,14.47953 -0.162676,-0.17731 -0.318057,-0.35045 -0.448409,-0.52016 -0.84922,-1.10746 -1.689909,-2.20046 -2.465056,-3.36108 -0.700079,-1.04802 -1.560964,-1.89981 -2.54755,-2.68088 -0.875467,-0.69321 -1.893949,-1.22672 -2.766765,-1.91896 -0.01427,-0.0587 -0.04674,-0.11594 -0.104742,-0.16374 -0.507098,-0.41723 -1.063401,-0.77094 -1.627017,-1.11581 0.166935,-0.57909 0.291784,-1.19246 0.432679,-1.75314 0.163276,-0.65151 0.275577,-1.30112 0.199438,-1.97616 -0.09407,-0.8391 -0.398954,-1.68941 -0.617032,-2.50392 -0.2275,-0.84953 -0.409021,-1.70714 -0.778466,-2.50862 -0.04259,-0.0928 -0.128746,-0.11596 -0.208297,-0.0959 -0.145498,-0.0403 -0.324965,0.0247 -0.355093,0.21588 -0.09491,0.60606 0.118079,1.13192 0.233044,1.722 0.142055,0.72804 0.261064,1.495 0.344323,2.23166 0.140671,1.24603 0.106709,2.79018 -0.142487,4.12212 -0.318706,-0.19882 -0.633343,-0.40356 -0.935465,-0.62447 -1.364889,-0.99768 -2.681294,-2.12988 -3.78793,-3.41315 -0.397879,-0.46142 -0.7768,-0.94122 -1.147663,-1.42796 0.189949,-1.72325 0.57659,-3.42591 1.149074,-5.05833 0.603291,-1.71946 0.968401,-3.44738 1.694097,-5.12168 0.548666,-1.26609 0.748149,-2.64171 1.249547,-3.91685 0.524222,-0.86235 1.06319,-1.7151 1.611825,-2.56509 0.171978,-0.22143 0.341702,-0.44459 0.500991,-0.67584 0.405372,-0.58846 0.740216,-1.19826 1.252289,-1.70621 0.292018,-0.2896 -0.127485,-0.66765 -0.440515,-0.50338 -0.635189,0.33313 -0.950423,0.91766 -1.329741,1.50109 -0.380744,0.58569 -0.818453,1.1322 -1.221201,1.70285 -0.09996,-0.63922 -0.16268,-1.27841 -0.274262,-1.92027 -0.18652,-1.07546 -0.549897,-2.10333 -0.406594,-3.21155 0.233428,-1.80587 1.506755,-3.34132 1.41222,-5.20536 -0.01428,-0.27772 -0.351673,-0.33287 -0.465239,-0.0841 -0.781313,1.71085 -1.862418,3.82951 -1.858799,5.74573 0.0014,1.66239 0.482778,3.70948 1.214525,5.24439 -0.0098,0.0169 -0.02146,0.0318 -0.03122,0.0481 -0.208193,0.33886 -0.377281,0.69215 -0.523873,1.05413 -1.767047,2.76426 -3.283904,5.79333 -3.89139,9.02984 -0.259249,1.38067 -0.548458,2.80573 -0.678353,4.2174 -1.22893,-1.78042 -2.328109,-3.66368 -3.388443,-5.52834 0.471902,-0.80174 0.812231,-1.65601 1.176557,-2.52883 1.203031,-2.88104 1.718207,-3.84902 1.709859,-7.00393 -0.0015,-0.83212 -0.0321,-1.59574 -0.219843,-2.34732 -0.144096,-0.45288 -0.333225,-0.87917 -0.537113,-1.33535 -0.04967,0.0133 -0.09703,0.0349 -0.135627,0.0689 -0.05019,0.009 -0.0987,0.0315 -0.139291,0.0642 0.149745,1.19547 0.02115,2.46678 -0.231419,3.71655 -0.440157,3.35296 -1.447718,4.85334 -2.417361,7.85547 -0.150136,0.17237 -0.299487,0.34335 -0.449648,0.50846 -1.16647,-2.83806 -1.279397,-1.96343 -0.497957,0.30175 -0.309554,-0.0991 -0.645272,-0.15092 -0.949187,-0.22553 -1.110655,-0.27305 -2.27066,-0.70774 -3.232812,-1.33211 -0.556128,-0.36134 -1.054698,-0.80603 -1.535453,-1.27772 -0.149751,-0.10234 -0.294452,-0.22388 -0.436103,-0.3857 -0.131,-0.14938 -0.252573,-0.29364 -0.371791,-0.43368 -0.397173,-0.40783 -0.797041,-0.813 -1.223291,-1.18243 -0.03264,-0.0235 -0.06242,-0.048 -0.09646,-0.0687 -0.361724,-0.24 -0.698592,-0.47924 -1.018908,-0.74897 -0.06227,-0.0387 -0.123415,-0.0755 -0.187311,-0.11106 -0.157433,-0.0863 -0.452266,0.0107 -0.38173,0.23841 0.217791,0.70875 0.786946,1.18129 1.352138,1.63757 1.17032,1.44902 2.539406,2.79666 3.927386,3.97967 0.615965,0.52541 1.278739,0.82574 2.06467,1.02081 0.816212,0.20262 1.827938,0.50385 2.669189,0.45832 0.01426,-5.7e-4 0.02549,-0.008 0.03802,-0.009 0.735001,1.6546 1.658117,3.22413 2.515172,4.85339 1.135331,2.15791 2.661895,4.02386 4.433602,5.65726 -0.0098,-0.006 -0.02052,-0.008 -0.03058,-0.0111 -2.256425,-0.70223 -4.532353,-1.38908 -6.838363,-1.91052 -1.158534,-0.26225 -2.240345,-0.46006 -3.327209,-0.45129 -0.571465,-0.76465 -1.292166,-1.44602 -1.917595,-2.14209 -0.739448,-0.82186 -1.447501,-1.67177 -2.194218,-2.48686 -0.777668,-0.84809 -1.590841,-1.66499 -2.440591,-2.44055 -0.823561,-0.75183 -1.744848,-1.71722 -2.807038,-2.09973 -0.167709,-0.0598 -0.367785,0.11581 -0.242656,0.28481 0.08156,0.10987 0.170548,0.21522 0.263114,0.31736 0.0015,0.007 0.0015,0.009 0.0079,0.0134 1.253536,1.69213 2.881186,3.13495 4.296954,4.69348 0.666299,0.73357 1.29723,1.48369 1.883665,2.28263 0.434643,0.59189 0.82411,1.23469 1.269681,1.82602 -0.197635,0.0519 -0.396302,0.11059 -0.597543,0.18108 -2.055627,0.72286 -4.268436,1.35072 -6.150109,2.4647 -0.147734,0.0875 -0.05976,0.27457 0.07561,0.31074 0.03347,0.0848 0.110779,0.14667 0.233038,0.12689 3.025807,-0.48638 6.007365,-2.01156 9.130896,-1.39493 0.649648,0.12835 1.295349,0.31042 1.936997,0.52583 -1.884902,1.06702 -3.477779,2.73649 -4.893969,4.29841 -0.846937,0.9342 -1.5953,1.75766 -2.188588,2.87819 -0.29301,0.55298 -0.617831,1.1037 -0.84113,1.68995 -0.137874,0.3623 -0.212163,0.74049 -0.319501,1.10694 -0.118639,0.22017 -0.216993,0.44839 -0.281241,0.6881 -0.02052,0.0364 -0.03801,0.0712 -0.06071,0.10619 -0.143871,0.22219 0.14936,0.40479 0.332445,0.27603 0.02464,-0.0111 0.04824,-0.0271 0.07142,-0.0507 0.9613,-0.97808 1.497471,-2.3379 2.090212,-3.55292 1.072414,-2.19728 4.934727,-4.43257 7.155491,-5.46522 0.482792,-0.22454 1.141157,-0.50043 1.573839,-0.92269 3.109758,1.39419 9.386567,3.57404 11.574174,5.2096 0.88693,0.6632 1.682539,1.45141 2.409873,2.29139 -0.243762,-0.0381 -0.487443,-0.0774 -0.730973,-0.12692 -1.124007,-0.22651 -2.315153,-0.50108 -3.466217,-0.37295 -2.06127,0.22911 -3.94374,1.19076 -5.701507,2.23857 -0.314265,0.18731 -0.03687,0.62922 0.28273,0.48073 0.06409,-0.0304 0.129171,-0.0599 0.193618,-0.0916 0.8369,0.12151 1.661167,-0.30923 2.440247,-0.58914 1.509394,-0.54196 2.781966,-0.3121 4.320013,-0.0525 1.193705,0.20155 2.733033,0.17008 3.829353,0.6954 0.112323,0.0533 0.216828,0.11813 0.318042,0.18652 0.16975,0.19129 0.336922,0.40281 0.505464,0.64147 1.064805,1.50877 1.819779,3.2029 2.689338,4.82446 0.868204,1.61828 1.919036,3.10189 2.394999,4.90254 0.465187,1.76017 0.454476,3.577 0.439938,5.38447 -0.01619,2.09281 -0.05311,4.1855 -0.08326,6.27812 -0.02929,2.02591 -0.01269,4.05163 -0.14105,6.07443 -0.119764,1.88007 -0.02833,3.76376 -0.131701,5.63853 0.615965,-0.0879 1.231928,-0.17697 1.848533,-0.26248 0.0079,-0.0559 0.0098,-0.11359 0.02018,-0.17015 0.0033,0.0543 0.0048,0.11123 0.0084,0.16664 0.899287,-0.12406 1.799772,-0.23895 2.704106,-0.32301 0.977932,-0.0909 2.132413,-0.2163 3.275639,-0.20798 -0.03521,-0.21629 -0.06056,-0.43376 -0.07531,-0.65235 0.03753,0.22026 0.08551,0.43769 0.141864,0.65277 0.306196,0.003 0.611121,0.0184 0.911375,0.0458 -0.102196,-0.67477 -0.124254,-1.38101 -0.207882,-2.04601 -0.141661,-1.12622 -0.223915,-2.2584 -0.368844,-3.38415 -0.26737,-2.07585 -0.564425,-4.15698 -1.124211,-6.17568 -0.581794,-2.09736 -1.146987,-4.19409 -1.670419,-6.30715 -0.242902,-0.98087 -0.53095,-1.95373 -0.731554,-2.94464 -0.285601,-1.41086 -0.06163,-2.58057 0.338094,-3.93715 0.315258,-1.06986 0.7253,-2.1154 1.1266,-3.15546 0.385836,-0.99865 0.591748,-2.16753 1.580316,-2.73375 1.701967,-0.97466 3.457086,-1.87704 5.167838,-2.84779 1.863416,-1.05793 3.608871,-2.30259 5.513705,-3.293 1.400687,-0.72823 4.204495,-2.09429 5.793056,-2.19356 0.870337,0.53485 1.803878,0.98956 2.675945,1.48364 1.921965,1.08861 5.879716,3.3886 7.953699,3.63064 1.386613,0.16183 2.745533,-0.0872 4.10198,-0.35388 0.429686,-0.0847 0.306759,-0.71236 -0.121634,-0.66384 -0.08873,0.0109 -0.175823,0.019 -0.263677,0.0283 -0.01699,-0.0346 -0.03991,-0.0643 -0.0734,-0.0892 -0.369683,-0.25465 -0.618449,-0.27178 -1.062775,-0.33935 -0.718245,-0.10897 -1.422249,-0.30757 -2.128057,-0.4784 -2.984743,-0.72317 -5.033333,-1.47338 -7.759551,-2.89573 -1.081868,-0.56463 -2.346243,-1.19564 -3.20064,-2.11346 2.241257,-1.14629 4.431291,-2.60421 6.881904,-3.26355 1.283808,-0.34573 2.846088,0.0264 4.147363,0.23422 1.429216,0.22853 2.697092,0.65488 4.164969,0.6493 0.390531,-0.003 0.536171,-0.48982 0.308706,-0.68252 z M 76.388984,218.20338 c -3.225581,0.13771 1.549781,-0.0643 0,0 z m -1.738209,-11.22544 v 0 c 0.126643,-0.22129 0.250042,-0.44324 0.366167,-0.66749 -0.07548,0.211 -0.152238,0.42038 -0.232972,0.62569 -0.06039,0.15293 -0.123699,0.30452 -0.189431,0.45528 0.01651,-0.12667 0.03381,-0.26287 0.05644,-0.41348 z m -0.472652,0.81056 v 0 c -0.139167,0.42247 -0.33846,0.69964 -0.630528,1.13071 -0.0012,0.003 -0.0038,0.006 -0.0051,0.008 0.197602,-0.38412 0.414116,-0.76135 0.634578,-1.13696 z m -16.216285,14.49377 v 0 c -0.197653,0.34229 -0.387067,0.68972 -0.569917,1.0387 0.16937,-0.35874 0.356109,-0.71402 0.569917,-1.0387 z m -8.021923,0.95156 c 0.764115,1.01413 0.758281,1.3494 0,0 z M 30.121836,216.7776 c 2.425853,-5.81587 0.06654,-0.0554 0,0 z m 22.606301,34.80967 v 0 c -0.03871,-0.1304 -0.08382,-0.25666 -0.127628,-0.38352 0.04174,0.0855 0.0879,0.16885 0.13479,0.25167 0.03075,0.1617 0.06349,0.3223 0.08958,0.48698 -0.03104,-0.11847 -0.06163,-0.23724 -0.09646,-0.35513"
       inkscape:export-xdpi="96"
       inkscape:export-ydpi="96" />
    <g
       aria-label="pro egernos"
       style="font-variant:normal;font-weight:normal;font-size:33.34677887px;font-family:MaiandraGD;-inkscape-font-specification:MaiandraGD-Regular;writing-mode:lr-tb;fill:#ffffff;fill-opacity:1;fill-rule:nonzero;stroke:none;stroke-width:0.91438603"
       id="g6415"
       transform="matrix(0.77966955,0,0,0.77966955,0.6625848,191.66634)"
       inkscape:export-xdpi="96"
       inkscape:export-ydpi="96">
      <path
         d="m 16.015828,96.831747 q 1.042087,0.68387 2.133022,1.042087 1.090935,0.358217 2.198152,0.358217 2.540086,0 4.18463,-1.644543 1.644543,-1.660826 1.644543,-4.200912 0,-2.637783 -1.514282,-4.233478 -1.498,-1.595696 -3.989239,-1.595696 -1.05837,0 -2.230717,0.423348 -1.172348,0.407065 -2.328413,1.204913 -0.03257,1.530565 -0.06513,3.696152 -0.01628,2.149304 -0.03257,4.949912 z m -0.08141,2.31213 q -0.01628,0.341935 -0.03256,0.749 0,0.407063 0,1.172353 0,2.19815 0.195391,3.59845 0.211674,1.41659 0.651305,2.29585 -0.716435,0.3745 -1.270044,0.53732 -0.553608,0.16283 -1.074652,0.16283 -0.716434,0 -1.009521,-0.40706 -0.293087,-0.40707 -0.293087,-1.48172 0,-1.13978 0.211674,-5.6175 0.227956,-4.477718 0.227956,-7.831935 0,-3.517043 -0.195391,-5.129021 -0.195391,-1.628261 -0.635022,-2.670348 0.358218,-0.113978 0.700152,-0.162826 0.341935,-0.06513 0.732718,-0.06513 0.830413,0 1.302608,0.472196 0.472196,0.472195 0.504761,1.318891 1.18863,-0.862978 2.556369,-1.318891 1.384022,-0.472196 2.702913,-0.472196 3.305369,0 5.519804,2.198152 2.214434,2.198152 2.214434,5.470956 0,3.517043 -2.507521,6.008282 -2.491239,2.49124 -5.992,2.49124 -1.335173,0 -2.426108,-0.30937 -1.074652,-0.325653 -2.084174,-1.009523 z"
         style="fill:#ffffff;stroke-width:0.91438603"
         id="path6395"
         inkscape:connector-curvature="0" />
      <path
         d="m 35.21115,87.648357 q 1.221196,-1.709674 2.328413,-2.540087 1.107217,-0.846695 2.181869,-0.846695 0.911826,0 1.546848,0.586174 0.651304,0.569891 0.651304,1.416586 0,0.553609 -0.3745,1.090935 -0.358217,0.521043 -1.090934,1.042087 -0.260522,-0.716435 -0.651305,-1.05837 -0.374499,-0.341934 -0.911825,-0.341934 -0.797848,0 -1.677109,0.797847 -0.879261,0.781566 -1.725956,2.263283 -0.08141,0.732717 -0.130261,1.498 -0.04885,0.749 -0.04885,1.465434 0,2.442391 0.260522,4.070652 0.276804,1.628261 0.846695,2.670347 -0.651304,0.341934 -1.286326,0.521044 -0.618739,0.17911 -1.221195,0.17911 -0.797848,0 -1.107217,-0.39078 -0.293087,-0.407069 -0.293087,-1.611982 0,-0.43963 0.162826,-3.3705 0.179108,-2.947152 0.179108,-5.470956 0,-2.067891 -0.162826,-3.175108 -0.162826,-1.107217 -0.537326,-1.953913 0.325652,-0.113978 0.635022,-0.162826 0.325652,-0.06513 0.667587,-0.06513 0.944391,0 1.400304,0.455913 0.455913,0.43963 0.455913,1.367739 0,0.211674 -0.03257,0.586174 -0.01628,0.358217 -0.06513,0.976956 z"
         style="fill:#ffffff;stroke-width:0.91438603"
         id="path6397"
         inkscape:connector-curvature="0" />
      <path
         d="m 51.443967,98.525138 q 2.637782,0 4.314891,-1.758521 1.693391,-1.774804 1.693391,-4.542848 0,-2.702912 -1.660826,-4.396303 -1.644543,-1.709674 -4.282326,-1.709674 -2.68663,0 -4.347456,1.774804 -1.644543,1.758522 -1.644543,4.673108 0,2.588935 1.677109,4.282326 1.677108,1.677108 4.24976,1.677108 z m -0.195391,2.344692 q -3.777565,0 -6.154826,-2.328409 -2.37726,-2.328413 -2.37726,-5.975717 0,-3.87526 2.540086,-6.285086 2.540087,-2.426108 6.594456,-2.426108 3.663587,0 6.024565,2.295847 2.37726,2.295848 2.37726,5.812891 0,1.416587 -0.455913,2.800608 -0.43963,1.384022 -1.204913,2.360978 -1.449152,1.8725 -3.289086,2.816891 -1.823652,0.928105 -4.054369,0.928105 z"
         style="fill:#ffffff;stroke-width:0.91438603"
         id="path6399"
         inkscape:connector-curvature="0" />
      <path
         d="m 85.198149,90.628074 q 1.074653,0.179109 2.360978,0.276804 1.302609,0.08141 2.800609,0.08141 2.035326,0 2.719195,-0.3745 0.68387,-0.3745 0.68387,-1.351456 0,-1.481717 -1.025805,-2.344695 -1.025804,-0.862979 -2.800608,-0.862979 -1.888782,0 -3.142543,1.204913 -1.253761,1.204913 -1.595696,3.3705 z m 9.476478,6.399065 q 0.358217,0.43963 0.521043,0.830412 0.179109,0.3745 0.179109,0.732718 0,0.879261 -1.318891,1.449151 -1.302609,0.55361 -3.419348,0.55361 -3.891543,0 -6.105977,-2.116739 -2.198152,-2.133022 -2.198152,-5.878022 0,-3.777564 2.214434,-6.171108 2.230717,-2.409825 5.715195,-2.409825 2.68663,0 4.412587,1.530565 1.725956,1.530565 1.725956,3.907825 0,1.8725 -1.432869,2.670348 -1.43287,0.797848 -4.8685,0.797848 -1.286326,0 -2.572652,-0.08141 -1.270043,-0.0977 -2.523804,-0.276805 v 0.227957 q 0,2.540086 1.498,4.021804 1.498,1.481717 4.070652,1.481717 1.204913,0 2.230717,-0.30937 1.025804,-0.325652 1.8725,-0.960673 z"
         style="fill:#ffffff;stroke-width:0.91438603"
         id="path6401"
         inkscape:connector-curvature="0" />
      <path
         d="m 103.54167,99.436964 h 0.0326 q -1.35145,0.537326 -2.03532,1.318896 -0.66759,0.79784 -0.66759,1.80736 0,1.498 1.31889,2.40983 1.31889,0.92811 3.51704,0.92811 2.13302,0 3.45192,-0.83041 1.31889,-0.81413 1.31889,-2.10046 0,-1.93763 -6.62702,-3.468195 -0.21168,-0.04885 -0.30937,-0.06513 z m 2.13302,-6.610738 q 1.66082,0 2.73548,-0.960674 1.09093,-0.976956 1.09093,-2.442391 0,-1.530565 -1.04209,-2.458674 -1.0258,-0.944391 -2.71919,-0.944391 -1.74224,0 -2.81689,0.928109 -1.05837,0.911826 -1.05837,2.409826 0,1.514282 1.05837,2.491239 1.07465,0.976956 2.75176,0.976956 z m -3.20768,1.465435 q -1.57941,-0.797848 -2.37726,-1.970196 -0.781561,-1.18863 -0.781561,-2.735478 0,-2.491239 1.791091,-4.103217 1.80736,-1.62826 4.64054,-1.62826 0.81413,0 1.66082,0.244239 0.8467,0.244239 1.74224,0.716434 1.82366,-0.488478 2.70292,-0.87926 0.87926,-0.407066 1.1235,-0.814131 0.32565,0.341935 0.47219,0.716435 0.16283,0.3745 0.16283,0.781565 0,0.830413 -0.63502,1.286326 -0.61874,0.43963 -2.13303,0.651304 0.58618,0.732718 0.86298,1.465435 0.27681,0.732717 0.27681,1.530565 0,2.263282 -1.75852,3.793847 -1.75853,1.514283 -4.41259,1.514283 -0.32565,0 -0.70015,-0.01628 -0.35822,-0.03257 -0.73272,-0.08141 -0.30937,0.30937 -0.4722,0.618739 -0.16282,0.293087 -0.16282,0.586174 0,1.1235 3.12626,1.807369 0.73272,0.162826 1.13978,0.24424 3.06113,0.716434 4.13578,1.660825 1.07465,0.928111 1.07465,2.654071 0,2.47495 -2.23071,4.08693 -2.21444,1.61198 -5.7152,1.61198 -3.25652,0 -5.1453,-1.35146 -1.888783,-1.33517 -1.888783,-3.61473 0,-1.5957 0.928108,-2.80061 0.944395,-1.221202 2.768045,-2.002767 -0.39078,-0.358218 -0.60246,-0.732718 -0.19539,-0.3745 -0.19539,-0.797847 0,-0.537326 0.32565,-1.139783 0.34194,-0.602456 1.00952,-1.302608 z"
         style="fill:#ffffff;stroke-width:0.91438603"
         id="path6403"
         inkscape:connector-curvature="0" />
      <path
         d="m 118.31158,90.628074 q 1.07466,0.179109 2.36098,0.276804 1.30261,0.08141 2.80061,0.08141 2.03533,0 2.7192,-0.3745 0.68386,-0.3745 0.68386,-1.351456 0,-1.481717 -1.0258,-2.344695 -1.0258,-0.862979 -2.80061,-0.862979 -1.88878,0 -3.14254,1.204913 -1.25376,1.204913 -1.5957,3.3705 z m 9.47648,6.399065 q 0.35822,0.43963 0.52104,0.830412 0.17911,0.3745 0.17911,0.732718 0,0.879261 -1.31889,1.449151 -1.30261,0.55361 -3.41935,0.55361 -3.89154,0 -6.10597,-2.116739 -2.19816,-2.133022 -2.19816,-5.878022 0,-3.777564 2.21444,-6.171108 2.23072,-2.409825 5.71519,-2.409825 2.68663,0 4.41259,1.530565 1.72596,1.530565 1.72596,3.907825 0,1.8725 -1.43287,2.670348 -1.43287,0.797848 -4.8685,0.797848 -1.28633,0 -2.57265,-0.08141 -1.27005,-0.0977 -2.52381,-0.276805 v 0.227957 q 0,2.540086 1.498,4.021804 1.498,1.481717 4.07065,1.481717 1.20492,0 2.23072,-0.30937 1.0258,-0.325652 1.8725,-0.960673 z"
         style="fill:#ffffff;stroke-width:0.91438603"
         id="path6405"
         inkscape:connector-curvature="0" />
      <path
         d="m 135.61291,87.648357 q 1.2212,-1.709674 2.32842,-2.540087 1.10721,-0.846695 2.18187,-0.846695 0.91182,0 1.54684,0.586174 0.65131,0.569891 0.65131,1.416586 0,0.553609 -0.3745,1.090935 -0.35822,0.521043 -1.09094,1.042087 -0.26052,-0.716435 -0.6513,-1.05837 -0.3745,-0.341934 -0.91183,-0.341934 -0.79784,0 -1.67711,0.797847 -0.87926,0.781566 -1.72595,2.263283 -0.0814,0.732717 -0.13026,1.498 -0.0488,0.749 -0.0488,1.465434 0,2.442391 0.26052,4.070652 0.27681,1.628261 0.8467,2.670347 -0.65131,0.341934 -1.28633,0.521044 -0.61874,0.17911 -1.22119,0.17911 -0.79785,0 -1.10722,-0.39078 -0.29309,-0.407069 -0.29309,-1.611982 0,-0.43963 0.16283,-3.3705 0.17911,-2.947152 0.17911,-5.470956 0,-2.067891 -0.16283,-3.175108 -0.16283,-1.107217 -0.53733,-1.953913 0.32566,-0.113978 0.63503,-0.162826 0.32565,-0.06513 0.66758,-0.06513 0.94439,0 1.40031,0.455913 0.45591,0.43963 0.45591,1.367739 0,0.211674 -0.0326,0.586174 -0.0163,0.358217 -0.0651,0.976956 z"
         style="fill:#ffffff;stroke-width:0.91438603"
         id="path6407"
         inkscape:connector-curvature="0" />
      <path
         d="m 147.96042,87.957726 q -0.0326,1.791087 -0.0977,3.858978 -0.0488,2.051609 -0.0488,2.31213 0,2.116739 0.19539,3.435631 0.19539,1.318891 0.61874,2.198151 -0.68387,0.358214 -1.25376,0.537324 -0.56989,0.16283 -1.1235,0.16283 -0.749,0 -1.0258,-0.42335 -0.27681,-0.423347 -0.27681,-1.774803 0,-0.293087 0.16283,-3.012283 0.17911,-2.735478 0.17911,-5.161586 0,-2.295848 -0.17911,-3.549608 -0.17911,-1.253761 -0.58617,-2.247 0.35821,-0.113978 0.71643,-0.179109 0.3745,-0.06513 0.71643,-0.06513 0.86298,0 1.36774,0.488478 0.50476,0.472196 0.5699,1.351456 1.22119,-0.87926 2.58893,-1.351456 1.36774,-0.488478 2.70291,-0.488478 1.62826,0 2.91459,0.716435 1.30261,0.700152 1.98648,1.953912 0.47219,0.862979 0.66758,2.019044 0.21168,1.139782 0.21168,3.484477 0,0.24424 -0.0326,1.156066 -0.0163,0.911826 -0.0163,1.579412 0,1.677109 0.21167,2.882022 0.22796,1.204913 0.66759,1.888782 -0.76528,0.374499 -1.33517,0.553609 -0.55361,0.17911 -1.00952,0.17911 -0.76529,0 -1.07466,-0.39078 -0.29308,-0.407069 -0.29308,-1.514286 0,-0.667587 0.0977,-2.865739 0.11398,-2.214435 0.11398,-3.761282 0,-2.947152 -0.89554,-4.266043 -0.89555,-1.335174 -2.88202,-1.335174 -1.00953,0 -2.18187,0.423348 -1.17235,0.407065 -2.37726,1.204912 z"
         style="fill:#ffffff;stroke-width:0.91438603"
         id="path6409"
         inkscape:connector-curvature="0" />
      <path
         d="m 171.32547,98.525138 q 2.63779,0 4.3149,-1.758521 1.69339,-1.774804 1.69339,-4.542848 0,-2.702912 -1.66083,-4.396303 -1.64454,-1.709674 -4.28232,-1.709674 -2.68663,0 -4.34746,1.774804 -1.64454,1.758522 -1.64454,4.673108 0,2.588935 1.6771,4.282326 1.67711,1.677108 4.24976,1.677108 z m -0.19539,2.344692 q -3.77756,0 -6.15482,-2.328409 -2.37726,-2.328413 -2.37726,-5.975717 0,-3.87526 2.54008,-6.285086 2.54009,-2.426108 6.59446,-2.426108 3.66359,0 6.02456,2.295847 2.37727,2.295848 2.37727,5.812891 0,1.416587 -0.45592,2.800608 -0.43963,1.384022 -1.20491,2.360978 -1.44915,1.8725 -3.28909,2.816891 -1.82365,0.928105 -4.05437,0.928105 z"
         style="fill:#ffffff;stroke-width:0.91438603"
         id="path6411"
         inkscape:connector-curvature="0" />
      <path
         d="m 183.69702,97.857551 q 0.58617,0.30937 1.1235,0.455913 0.53733,0.146544 1.04209,0.146544 1.17234,0 1.88878,-0.553609 0.71643,-0.569891 0.71643,-1.481717 0,-0.716435 -0.39078,-1.335174 -0.39078,-0.618739 -1.46543,-1.498 -0.17911,-0.13026 -0.48848,-0.390782 -2.75176,-2.279565 -2.75176,-4.038087 0,-0.716434 0.2768,-1.432869 0.27681,-0.716435 0.81413,-1.367739 1.02581,-1.221196 2.39355,-1.856217 1.38402,-0.651304 2.97971,-0.651304 0.78157,0 1.18863,0.309369 0.40707,0.293087 0.40707,0.862978 0,0.276805 -0.14655,0.667587 -0.14654,0.3745 -0.48847,0.960674 -0.43963,-0.179109 -0.83042,-0.260522 -0.39078,-0.0977 -0.76528,-0.0977 -1.35146,0 -2.19815,0.667586 -0.83041,0.651305 -0.83041,1.693392 0,1.139782 2.26328,3.077412 0.56989,0.488478 0.86298,0.765283 0.96067,0.846695 1.41658,1.677108 0.45592,0.814131 0.45592,1.677109 0,2.035326 -1.80737,3.517043 -1.79109,1.465441 -4.36374,1.465441 -0.89555,0 -1.38402,-0.35822 -0.4722,-0.35823 -0.4722,-1.009525 0,-0.30937 0.13026,-0.68387 0.13026,-0.3745 0.42335,-0.928109 z"
         style="fill:#ffffff;stroke-width:0.91438603"
         id="path6413"
         inkscape:connector-curvature="0" />
    </g>
    <path
       inkscape:connector-curvature="0"
       id="path6417"
       style="fill:#53a30d;fill-opacity:1;fill-rule:nonzero;stroke:none;stroke-width:0.71291876"
       d="m 17.875413,231.543 c -0.02829,-0.0338 -0.06815,-0.0554 -0.121167,-0.0566 -2.230661,-0.0508 -4.469756,-0.14385 -6.612293,0.6199 -1.6538774,0.58957 -3.9925852,2.10317 -4.0055025,4.10383 -0.014169,2.30495 3.2838965,1.51178 4.5398205,0.94775 1.190733,-0.53449 2.243539,-1.31237 3.275011,-2.0976 1.159963,-0.88328 2.490727,-1.86079 3.202829,-3.16448 0.107831,-0.19755 -0.0799,-0.44472 -0.278802,-0.35176"
       inkscape:export-xdpi="96"
       inkscape:export-ydpi="96" />
    <path
       inkscape:connector-curvature="0"
       id="path6419"
       style="fill:#a3df38;fill-opacity:1;fill-rule:nonzero;stroke:none;stroke-width:0.71291876"
       d="m 33.606413,206.01907 c -0.109527,-1.73892 -0.574738,-5.62476 -2.993115,-5.87194 -2.145506,-0.21898 -2.214901,3.40015 -2.025902,4.71613 0.216611,1.50827 0.597578,3.01866 1.102185,4.45464 0.465404,1.324 1.579672,2.6678 1.803599,4.04698 0.0098,0.0616 0.05611,0.0949 0.106712,0.10202 -0.0083,0.0207 -0.01623,0.0408 -0.02565,0.0588 -0.05483,0.12115 0.129318,0.23966 0.21867,0.14242 1.803592,-1.96164 1.97112,-5.13969 1.813493,-7.6498"
       inkscape:export-xdpi="96"
       inkscape:export-ydpi="96" />
    <path
       inkscape:connector-curvature="0"
       id="path6421"
       style="fill:#53a30d;fill-opacity:1;fill-rule:nonzero;stroke:none;stroke-width:0.71291876"
       d="m 40.983635,194.43281 c -1.807438,-0.67423 -3.036951,1.49461 -3.447231,2.89643 -0.323305,1.10408 -0.392823,2.24142 -0.434891,3.38494 -0.0534,1.45673 -0.11007,3.01381 0.246411,4.43442 0.01821,0.0691 0.07546,0.12081 0.140432,0.14474 -0.01268,0.0111 -0.02196,0.0218 -0.03289,0.0317 -0.127922,0.11322 0.02159,0.32571 0.160227,0.21701 2.069036,-1.61971 3.793595,-3.72241 4.604604,-6.25807 0.479928,-1.50212 0.61936,-4.15834 -1.236577,-4.85066"
       inkscape:export-xdpi="96"
       inkscape:export-ydpi="96" />
    <path
       inkscape:connector-curvature="0"
       id="path6423"
       style="fill:#70cc0f;fill-opacity:1;fill-rule:nonzero;stroke:none;stroke-width:0.71291876"
       d="m 47.658798,217.37458 c -1.085858,-1.23077 -3.118049,-2.84515 -4.896641,-2.12857 -1.799325,0.7255 0.471323,2.91118 1.126732,3.63606 0.796157,0.88069 1.693445,1.68957 2.703843,2.31792 0.409476,0.25492 0.847,0.49882 1.294401,0.68294 0.551306,0.22713 1.194571,0.28383 1.649839,0.69374 0.07974,0.071 0.168356,0.0585 0.235272,0.009 0.07886,-0.0186 0.151366,-0.0785 0.16875,-0.17594 0.295843,-1.65012 -1.240978,-3.85472 -2.282148,-5.03414"
       inkscape:export-xdpi="96"
       inkscape:export-ydpi="96" />
    <path
       inkscape:connector-curvature="0"
       id="path6425"
       style="fill:#70cc0f;fill-opacity:1;fill-rule:nonzero;stroke:none;stroke-width:0.71291876"
       d="m 46.528092,226.09882 c -0.509256,-0.10627 -1.155715,0.23995 -1.523344,0.60561 -1.230877,1.2233 -2.030571,2.82204 -2.384825,4.51249 0.10516,0.0829 3.118193,-1.39953 4.08221,-2.68814 0.361286,-0.4838 0.67719,-1.29926 0.427958,-1.89428 -0.135057,-0.32196 -0.351844,-0.48338 -0.601999,-0.53568"
       inkscape:export-xdpi="96"
       inkscape:export-ydpi="96" />
    <path
       inkscape:connector-curvature="0"
       id="path6427"
       style="fill:#53a30d;fill-opacity:1;fill-rule:nonzero;stroke:none;stroke-width:0.71291876"
       d="m 40.885652,220.39638 c -0.251634,-1.11381 -1.068505,-2.97601 -2.543079,-2.16996 -1.482943,0.81009 -1.193777,3.11246 -0.889432,4.45481 0.361935,1.59919 1.276842,3.50175 2.798337,4.29943 0.115553,0.0607 0.246315,-0.0254 0.260084,-0.13611 0.02478,-0.0216 0.04594,-0.0494 0.05691,-0.0872 0.584899,-2.08041 0.796625,-4.23687 0.31691,-6.36102"
       inkscape:export-xdpi="96"
       inkscape:export-ydpi="96" />
    <path
       inkscape:connector-curvature="0"
       id="path6429"
       style="fill:#53a30d;fill-opacity:1;fill-rule:nonzero;stroke:none;stroke-width:0.71291876"
       d="m 53.68887,209.70101 c -0.782298,-1.51092 -1.578668,-3.01589 -2.705972,-4.30521 -1.27496,-1.45847 -4.787472,-4.24744 -6.796187,-2.48695 -2.300554,2.01642 0.243348,5.81584 1.715952,7.43187 2.330235,2.55717 5.673404,4.17859 9.073308,4.75334 0.122578,0.0211 0.22869,-0.0668 0.268131,-0.17438 0.02907,-0.0365 0.05149,-0.0777 0.05572,-0.13341 0.132957,-1.75496 -0.8278,-3.57234 -1.610851,-5.08523"
       inkscape:export-xdpi="96"
       inkscape:export-ydpi="96" />
    <path
       inkscape:connector-curvature="0"
       id="path6431"
       style="fill:#a3df38;fill-opacity:1;fill-rule:nonzero;stroke:none;stroke-width:0.71291876"
       d="m 51.422849,199.00635 c -0.0048,-1.72676 -0.204302,-3.63047 -1.197761,-5.09413 -0.482003,-0.7104 -1.180597,-1.67063 -2.155657,-1.60398 -2.19125,0.14934 -1.204472,3.6923 -0.73357,4.89103 0.557765,1.41995 1.232692,2.65964 3.786521,4.98758 0.209399,-1.119 0.302125,-2.6572 0.300467,-3.1805"
       inkscape:export-xdpi="96"
       inkscape:export-ydpi="96" />
    <path
       inkscape:connector-curvature="0"
       id="path6433"
       style="fill:#70cc0f;fill-opacity:1;fill-rule:nonzero;stroke:none;stroke-width:0.71291876"
       d="m 61.90513,199.03017 c -0.800889,-1.88781 -2.543909,-4.63381 -4.987933,-4.18596 -2.438761,0.44706 -1.848679,3.75858 -1.177963,5.36869 1.186306,2.84715 3.283333,5.64901 6.062676,7.09932 0.07974,0.20767 0.455692,0.2545 0.568828,0.0109 1.117143,-2.40854 0.53613,-5.93073 -0.465608,-8.29194"
       inkscape:export-xdpi="96"
       inkscape:export-ydpi="96" />
    <path
       inkscape:connector-curvature="0"
       id="path6435"
       style="fill:#53a30d;fill-opacity:1;fill-rule:nonzero;stroke:none;stroke-width:0.71291876"
       d="m 68.468692,209.20832 c -1.31031,-1.26665 -3.170127,0.30906 -3.923108,1.39729 -1.200988,1.73508 -2.352651,4.19072 -2.093239,6.32756 0.0038,0.0241 0.0099,0.0446 0.02045,0.0607 -0.04732,0.0169 -0.09365,0.033 -0.141651,0.0482 -0.220294,0.0724 -0.115978,0.40687 0.106701,0.34401 1.147488,-0.32372 2.391865,-0.94419 3.422517,-1.52422 1.032896,-0.58096 1.915614,-1.48665 2.497429,-2.51325 0.622031,-1.09739 1.167247,-3.12013 0.111482,-4.14068"
       inkscape:export-xdpi="96"
       inkscape:export-ydpi="96" />
    <path
       inkscape:connector-curvature="0"
       id="path6437"
       style="fill:#53a30d;fill-opacity:1;fill-rule:nonzero;stroke:none;stroke-width:0.71291876"
       d="m 77.617964,197.09365 c -2.272457,-0.50559 -3.952721,1.86429 -4.545447,3.71777 -0.926379,2.89846 -0.785601,6.07269 0.205461,8.93651 0.03361,0.0973 0.09771,0.15539 0.170765,0.18233 0.02517,0.11206 0.170351,0.19603 0.278678,0.0905 2.136881,-2.08758 4.726559,-3.76572 5.687113,-6.76537 0.633824,-1.9801 0.843124,-5.57399 -1.796618,-6.1616"
       inkscape:export-xdpi="96"
       inkscape:export-ydpi="96" />
    <path
       inkscape:connector-curvature="0"
       id="path6439"
       style="fill:#a3df38;fill-opacity:1;fill-rule:nonzero;stroke:none;stroke-width:0.71291876"
       d="m 67.731086,205.80045 c -0.0421,-0.23433 1.596093,-2.36528 1.899671,-2.9036 0.614739,-1.09051 1.121961,-2.25123 1.378608,-3.48098 0.174005,-0.83386 0.182294,-4.34666 -1.588985,-3.33468 -0.319902,0.18255 -0.533575,0.50347 -0.716662,0.82294 -0.784898,1.37158 -1.187606,2.908 -1.23776,4.48365 -0.03435,1.08587 0.197042,4.03149 0.265128,4.41267"
       inkscape:export-xdpi="96"
       inkscape:export-ydpi="96" />
    <path
       inkscape:connector-curvature="0"
       id="path6441"
       style="fill:#70cc0f;fill-opacity:1;fill-rule:nonzero;stroke:none;stroke-width:0.71291876"
       d="m 90.459896,207.98824 c -1.294405,-1.47907 -3.78987,0.33762 -4.776039,1.32876 -1.507578,1.51544 -2.848677,3.72943 -3.131958,5.88893 -0.0093,5.6e-4 -0.01501,5.6e-4 -0.02169,0.003 -0.37953,0.0335 -0.362085,0.68012 0.02491,0.67703 1.335713,-0.0111 2.554643,-0.64358 3.752527,-1.16973 1.258053,-0.55234 2.503867,-1.21109 3.442097,-2.24236 0.952127,-1.0461 1.811023,-3.22667 0.710098,-4.48507"
       inkscape:export-xdpi="96"
       inkscape:export-ydpi="96" />
    <path
       inkscape:connector-curvature="0"
       id="path6443"
       style="fill:#70cc0f;fill-opacity:1;fill-rule:nonzero;stroke:none;stroke-width:0.71291876"
       d="m 77.964147,226.85653 c -0.339243,-1.3725 -2.376385,-1.44998 -3.461671,-1.33282 -1.898652,0.20446 -3.705094,0.92246 -5.240952,2.05318 -0.310043,0.1126 -0.417559,0.58459 -0.02109,0.697 1.932146,0.54644 3.986805,1.16071 6.023339,0.87026 1.023626,-0.14618 3.04324,-0.9002 2.700212,-2.28762"
       inkscape:export-xdpi="96"
       inkscape:export-ydpi="96" />
    <path
       inkscape:connector-curvature="0"
       id="path6445"
       style="fill:#53a30d;fill-opacity:1;fill-rule:nonzero;stroke:none;stroke-width:0.71291876"
       d="m 67.754122,231.47565 c -0.61133,-1.26471 -2.773265,-0.96524 -3.87947,-0.8139 -1.190088,0.16275 -2.362204,0.45231 -3.491839,0.85843 -0.941127,0.33874 -1.924865,0.67321 -2.541681,1.49471 -0.04009,0.003 -0.07974,3.7e-4 -0.119767,0.006 -0.333015,0.0263 -0.326729,0.47844 -5.27e-4,0.51309 2.572561,0.2719 5.094777,0.93364 7.68331,0.34828 1.05648,-0.23905 3.059561,-0.93574 2.349854,-2.40404"
       inkscape:export-xdpi="96"
       inkscape:export-ydpi="96" />
    <path
       inkscape:connector-curvature="0"
       id="path6447"
       style="fill:#53a30d;fill-opacity:1;fill-rule:nonzero;stroke:none;stroke-width:0.71291876"
       d="m 85.739161,217.98779 c -1.451145,-0.30178 -2.982228,1.51373 -3.54541,2.61906 -0.817906,1.60589 -0.986129,3.39373 -0.840008,5.16506 0.01332,0.14748 0.155667,0.18667 0.267671,0.14259 0.05512,0.0519 0.129431,0.0817 0.208899,0.0659 1.798744,-0.32799 7.053241,-7.33944 3.908848,-7.9936"
       inkscape:export-xdpi="96"
       inkscape:export-ydpi="96" />
    <path
       inkscape:connector-curvature="0"
       id="path6449"
       style="fill:#a3df38;fill-opacity:1;fill-rule:nonzero;stroke:none;stroke-width:0.71291876"
       d="m 94.515042,223.90616 c 0.319426,-0.13079 0.63717,-0.28291 0.948366,-0.45552 0.920368,-0.57039 2.193892,-1.53661 1.893821,-2.77704 -0.111844,-0.46151 -0.361865,-0.72516 -0.683295,-0.85949 -1.410488,-0.21283 -2.924689,0.80653 -4.261013,1.75597 -1.461734,1.03864 -3.043964,2.18211 -4.364577,3.56807 2.143322,0.13311 4.453561,-0.40608 6.466698,-1.23199"
       inkscape:export-xdpi="96"
       inkscape:export-ydpi="96" />
    <path
       inkscape:connector-curvature="0"
       id="path6451"
       style="fill:#70cc0f;fill-opacity:1;fill-rule:nonzero;stroke:none;stroke-width:0.71291876"
       d="m 98.502679,232.20004 c -0.672871,-1.8791 -3.464447,-2.55267 -5.188036,-2.7217 -2.262168,-0.22192 -4.577792,0.2205 -6.576827,1.30322 -0.06424,0.0361 -0.09812,0.0849 -0.107918,0.13709 -0.26442,0.0839 -0.441373,0.41021 -0.167239,0.61756 0.955558,0.72285 2.053942,1.1097 3.182816,1.47887 1.422966,0.46526 2.831508,0.92744 4.329628,1.07721 1.198757,0.11968 5.364733,0.44291 4.527675,-1.89224"
       inkscape:export-xdpi="96"
       inkscape:export-ydpi="96" />
    <path
       inkscape:connector-curvature="0"
       id="path6453"
       style="fill:#53a30d;fill-opacity:1;fill-rule:nonzero;stroke:none;stroke-width:0.71291876"
       d="m 93.491679,237.94168 c -3.004156,-0.72184 -6.647635,0.0734 -9.416227,1.30667 -0.04626,0.0205 -0.07579,0.0537 -0.09649,0.0928 -0.01492,-0.007 -0.02796,-0.0111 -0.04313,-0.0141 -0.582468,-0.13355 -0.726005,0.74993 -0.164071,0.90272 0.668846,0.1822 1.17861,0.852 1.763364,1.20055 0.564119,0.33601 1.210014,0.56228 1.831293,0.76284 1.462187,0.47233 2.968406,0.77152 4.506646,0.80944 1.554619,0.0391 4.415667,-0.0765 5.19498,-1.77815 0.953034,-2.08002 -2.164715,-2.94429 -3.577867,-3.28369"
       inkscape:export-xdpi="96"
       inkscape:export-ydpi="96" />
    <path
       inkscape:connector-curvature="0"
       id="path6455"
       style="fill:#70cc0f;fill-opacity:1;fill-rule:nonzero;stroke:none;stroke-width:0.71291876"
       d="m 85.414918,250.40749 c 0.243687,-0.51531 0.360546,-1.14635 0.329916,-1.57105 -0.07562,-1.05025 -0.404996,-2.12503 -0.814783,-3.08799 -0.755348,-1.77655 -1.873864,-3.40081 -3.231006,-4.77118 -0.428668,-0.43216 -0.376064,0.83999 -0.397241,1.09219 -0.04952,0.58497 -0.08402,1.17093 -0.09139,1.75814 -0.01484,1.14283 0.07537,2.29049 0.349783,3.40257 0.345387,1.40305 1.044232,2.86392 2.083776,3.73455 0.811839,0.68005 1.421374,0.17976 1.770398,-0.55723"
       inkscape:export-xdpi="96"
       inkscape:export-ydpi="96" />
    <path
       inkscape:connector-curvature="0"
       id="path6457"
       style="fill:#a3df38;fill-opacity:1;fill-rule:nonzero;stroke:none;stroke-width:0.71291876"
       d="m 79.378464,240.27155 c 0.01829,-0.44218 0.0042,-0.76516 -0.08172,-0.75547 -0.449089,0.0528 -1.077531,0.78712 -1.421386,1.08571 -0.508441,0.44131 -0.997682,0.90565 -1.439117,1.41442 -1.293553,1.49225 -2.604465,4.01586 -0.741614,5.61938 2.421383,2.08431 3.275157,-3.68414 3.461614,-4.9923 0.01638,-0.11456 0.186149,-1.48327 0.222075,-2.37174"
       inkscape:export-xdpi="96"
       inkscape:export-ydpi="96" />
    <path
       inkscape:connector-curvature="0"
       id="path6459"
       style="fill:#53a30d;fill-opacity:1;fill-rule:nonzero;stroke:none;stroke-width:0.71291876"
       d="m 24.868175,219.05131 c -0.0014,-0.0248 -0.0014,-0.0502 -0.01267,-0.0742 -0.512075,-1.31236 -0.837045,-2.59108 -1.585816,-3.81569 -0.780007,-1.27527 -1.668771,-2.50865 -2.69374,-3.60007 -1.465307,-1.56077 -4.013872,-2.39918 -5.01845,0.17007 -0.936883,2.3966 1.472854,4.85598 3.186537,6.16305 1.044569,0.79663 2.175024,1.49792 3.466121,1.80305 0.759259,0.17943 2.13855,0.51907 2.737889,-0.15762 0.139841,-0.15804 0.07431,-0.39323 -0.08031,-0.48836"
       inkscape:export-xdpi="96"
       inkscape:export-ydpi="96" />
    <path
       inkscape:connector-curvature="0"
       id="path6461"
       style="fill:#70cc0f;fill-opacity:1;fill-rule:nonzero;stroke:none;stroke-width:0.71291876"
       d="m 24.540601,202.31903 c -0.301355,-1.19148 -1.4389,-3.11815 -2.960595,-2.86323 -0.233185,0.04 -0.453845,0.13629 -0.652545,0.26286 -0.559786,0.35636 -1.064798,1.03394 -1.134877,1.70186 -0.0907,0.86293 0.261265,1.86978 0.575296,2.6569 0.834847,2.093 2.075688,3.96518 3.773978,5.45548 0.589089,0.51727 1.255592,0.89365 1.909771,1.29092 -0.257717,-0.15638 -0.307,-3.74058 -1.511028,-8.50479"
       inkscape:export-xdpi="96"
       inkscape:export-ydpi="96" />
    <path
       inkscape:connector-curvature="0"
       id="path6463"
       style="fill:#a3df38;fill-opacity:1;fill-rule:nonzero;stroke:none;stroke-width:0.71291876"
       d="m 27.879687,225.39437 c -0.021,-0.14775 -0.04206,-0.2912 -0.06116,-0.42783 -0.15178,-1.07202 -0.809412,-3.7362 -2.452754,-3.15814 -1.015892,0.3578 -0.956281,1.57645 -0.593347,2.39854 0.592497,1.34246 1.597319,2.5113 2.935533,3.13626 0.08269,0.0391 0.157411,0.0762 0.245163,0.0868 0.108378,-0.61443 0.02052,-1.36914 -0.07338,-2.03565"
       inkscape:export-xdpi="96"
       inkscape:export-ydpi="96" />
    <path
       inkscape:connector-curvature="0"
       id="path6465"
       style="fill:#a3df38;fill-opacity:1;fill-rule:nonzero;stroke:none;stroke-width:0.71291876"
       d="m 21.368255,224.84916 c -0.104034,-1.10122 -0.793402,-2.24221 -1.288097,-3.20759 -0.477143,-0.93171 -1.034267,-1.86137 -1.847533,-2.54177 -1.366043,-1.14368 -4.021243,-1.9407 -5.440092,-0.4655 -1.516867,1.57761 0.127911,3.32038 1.461847,4.30123 0.904755,0.66538 1.930776,1.12924 2.950455,1.58745 0.639419,0.28757 1.280604,0.61416 1.95563,0.81097 0.564401,0.16495 1.159743,0.19032 1.712449,0.39273 0.556744,0.20347 0.866779,-0.54314 0.495341,-0.87752"
       inkscape:export-xdpi="96"
       inkscape:export-ydpi="96" />
    <path
       inkscape:connector-curvature="0"
       id="path6467"
       style="fill:#70cc0f;fill-opacity:1;fill-rule:nonzero;stroke:none;stroke-width:0.71291876"
       d="m 14.479295,226.78906 c -0.98535,-0.42326 -2.090322,-0.72457 -3.157356,-0.83668 -1.272529,-0.13384 -3.3087588,0.052 -3.3445583,1.72953 -0.028185,1.33936 1.7020159,1.69412 2.7411393,1.80959 1.968709,0.21813 4.331108,-0.44042 6.066,-1.33314 0.02729,-0.0146 0.05126,-0.0308 0.07189,-0.0489 -0.822741,-0.41503 -1.62397,-0.99828 -2.377183,-1.32188"
       inkscape:export-xdpi="96"
       inkscape:export-ydpi="96" />
    <path
       inkscape:connector-curvature="0"
       id="path6469"
       style="fill:#70cc0f;fill-opacity:1;fill-rule:nonzero;stroke:none;stroke-width:0.71291876"
       d="m 21.851621,238.46502 c -0.06759,-0.29503 -0.322299,-0.43078 -0.556365,-0.41669 -0.08788,-0.0349 -0.191779,-0.0349 -0.294645,0.0248 -2.361734,1.33968 -4.170624,3.60682 -5.194229,6.1077 -0.419246,1.02457 -0.777581,2.21344 -0.42012,3.30601 0.189949,0.58087 0.509084,1.30127 1.192335,1.38943 1.241617,0.16054 2.655612,-1.42199 3.26997,-2.30939 0.724661,-1.04694 1.16175,-2.24909 1.497665,-3.46816 0.415861,-1.51094 0.863066,-3.07033 0.505389,-4.63304"
       inkscape:export-xdpi="96"
       inkscape:export-ydpi="96" />
    <path
       inkscape:connector-curvature="0"
       id="path6471"
       style="fill:#a3df38;fill-opacity:1;fill-rule:nonzero;stroke:none;stroke-width:0.71291876"
       d="m 28.077747,242.38599 c 0.140268,-0.14619 0.264718,-0.29848 0.368787,-0.43801 1.154939,-1.55275 2.255899,-3.80834 1.901645,-5.79786 -0.0494,-0.27693 -1.620332,0.83668 -1.733909,0.9308 -0.603036,0.49909 -1.193127,1.0183 -1.70808,1.60951 -0.915023,1.05014 -2.252679,3.14394 -0.654496,4.21259 0.651279,0.43555 1.334342,-0.006 1.826053,-0.51703"
       inkscape:export-xdpi="96"
       inkscape:export-ydpi="96" />
    <path
       inkscape:connector-curvature="0"
       id="path6473"
       style="fill:#53a30d;fill-opacity:1;fill-rule:nonzero;stroke:none;stroke-width:0.71291876"
       d="m 33.912582,245.98133 c 0.06212,-0.0279 0.123276,-0.0544 0.183248,-0.085 1.318851,-0.64369 2.297396,-1.84102 3.410492,-2.7674 0.925742,-0.7708 2.214898,-1.8794 3.546846,-2.31747 0.04595,-0.0739 0.08943,-0.14985 0.128455,-0.22559 0.0983,-0.19081 0.04371,-0.36004 -0.0731,-0.46442 -0.02213,-0.0585 -0.06163,-0.1123 -0.124258,-0.14896 -2.169844,-1.26664 -5.482438,-0.91284 -7.712425,-0.0111 -1.730916,0.69999 -4.349615,2.77425 -3.547278,4.95888 0.659375,1.79492 2.707727,1.71253 4.187837,1.06023"
       inkscape:export-xdpi="96"
       inkscape:export-ydpi="96" />
    <text
       id="text6477"
       y="290.85455"
       x="1.3805788"
       style="font-style:normal;font-weight:normal;font-size:12.7847px;line-height:1.25;font-family:sans-serif;letter-spacing:0px;word-spacing:0px;fill:#000000;fill-opacity:1;stroke:#ffffff;stroke-width:0.319619"
       xml:space="preserve"
       inkscape:export-xdpi="96"
       inkscape:export-ydpi="96"
       transform="scale(0.98688422,1.0132901)"><tspan
         style="font-style:normal;font-variant:normal;font-weight:normal;font-stretch:normal;font-family:Calibri;-inkscape-font-specification:Calibri;fill:#ffffff;stroke:#ffffff;stroke-width:0.319619"
         y="290.85455"
         x="1.3805788"
         id="tspan6475"
         sodipodi:role="line">SERVICIO INTEGRAL DE SALUD</tspan></text>
  </g>
</svg>
